<svg xmlns="http://www.w3.org/2000/svg" version="1.1" viewBox="-5.0 -10.0 110.0 135.0">
 <g>
  <path d="m77.352 43.891c-11.723 0-21.262 9.5352-21.262 21.262 0 7.8359-6.3711 14.207-14.207 14.207-7.6367 0-13.867-6.0625-14.176-13.621 0.44141-0.32422 0.73047-0.86719 0.73047-1.4805v-2.6797c1.1445 0.98828 2.5352 1.6836 4.0234 1.9922l9.4766 1.9688c0.27734 0.058594 0.55859 0.085938 0.83594 0.085938 0.92969 0 1.832-0.31641 2.5703-0.91406 0.95703-0.78125 1.5078-1.9336 1.5078-3.168v-19.789c0-1.2852-0.58594-2.4727-1.6133-3.25-1.0234-0.77734-2.3203-1.0273-3.5625-0.68359l-13.258 3.6797c-0.046875-0.45312-0.41406-0.8125-0.88281-0.8125h-0.0625v-4.2188c0-0.023438-0.011718-0.042969-0.015625-0.070312 0-0.011719 0.003907-0.019532 0-0.03125l-0.71875-4.2578c-0.074219-0.43359-0.44922-0.75-0.88672-0.75h-0.84766l0.003906-16.871c0-0.49609-0.40234-0.89844-0.89844-0.89844s-0.89844 0.40234-0.89844 0.89844v16.867h-0.84766c-0.44141 0-0.81641 0.31641-0.88672 0.75l-0.6875 4.0898c-0.027343 0.085938-0.039062 0.17578-0.039062 0.26953v4.2188h-0.039062c-0.46484 0-0.83594 0.35938-0.88281 0.8125l-13.266-3.6758c-1.2383-0.34766-2.5391-0.097656-3.5625 0.68359-1.0234 0.77734-1.6133 1.9648-1.6133 3.25v19.789c0 1.2344 0.54688 2.3906 1.5078 3.168 0.73828 0.59766 1.6406 0.91406 2.5703 0.91406 0.27734 0 0.55859-0.027344 0.83594-0.085938l9.4766-1.9688c1.4883-0.30859 2.8789-1.0039 4.0234-1.9922v2.6797c0 0.66797 0.34766 1.2461 0.85547 1.5547 0.35156 11.414 9.7266 20.602 21.227 20.602 11.723 0 21.262-9.5391 21.262-21.262 0-7.832 6.3711-14.207 14.207-14.207 7.832 0 14.207 6.375 14.207 14.207 0 7.8359-6.3711 14.207-14.207 14.207-5.2461 0-10.039-2.8633-12.508-7.4688-0.23438-0.4375-0.78125-0.60547-1.2188-0.36719-0.4375 0.23437-0.60156 0.78125-0.36719 1.2188 2.7812 5.1953 8.1797 8.4219 14.094 8.4219 8.8281 0 16.008-7.1797 16.008-16.008 0-8.832-7.1797-16.012-16.008-16.012-8.8242 0-16.008 7.1797-16.008 16.008 0 10.73-8.7305 19.461-19.461 19.461-10.426 0-18.938-8.2461-19.414-18.555h3.4531c0.47266 8.4023 7.4414 15.102 15.961 15.102 8.8281 0 16.008-7.1797 16.008-16.008 0-10.73 8.7305-19.461 19.461-19.461 10.73 0 19.461 8.7305 19.461 19.461 0 10.73-8.7305 19.461-19.461 19.461-5.9023 0-11.402-2.6016-15.086-7.1445-0.31641-0.38672-0.87891-0.44531-1.2656-0.13281s-0.44531 0.88281-0.13281 1.2656c4.0273 4.9609 10.035 7.8086 16.484 7.8086 11.723 0 21.262-9.5391 21.262-21.262 0-11.719-9.5391-21.258-21.262-21.258zm-50.715-1.4062v16.344l-5.0312-0.003906v-16.34zm-5.0312 21.773v-3.6328h5.0312l-0.007813 3.6289zm20.555-24.707c0.69141-0.19141 1.418-0.050781 1.9922 0.38281 0.57422 0.43359 0.90234 1.0977 0.90234 1.8164v19.789c0 0.69141-0.30859 1.3359-0.84375 1.7734-0.53516 0.43359-1.2266 0.60156-1.9062 0.46484l-9.4766-1.9688c-1.5625-0.32422-2.9883-1.1758-4.0117-2.4023l-0.37891-0.45312v-15.594zm-19.617-2.9609 0.57812-3.4336h1.9766l0.41406 2.4609h-0.79688c-0.49609 0-0.89844 0.40234-0.89844 0.89844s0.40234 0.89844 0.89844 0.89844h0.96094v3.2695h-3.1328zm-7.1289 25.219-9.4766 1.9688c-0.67969 0.14062-1.3711-0.03125-1.9062-0.46484s-0.84375-1.0781-0.84375-1.7695v-19.789c0-0.71875 0.32812-1.3828 0.90234-1.8164 0.57422-0.4375 1.2969-0.57422 1.9922-0.38281l13.723 3.8086v15.594l-0.37891 0.45312c-1.0234 1.2188-2.4492 2.0703-4.0117 2.3984z"/>
  <path d="m55.297 33.242 0.79297 7.7031v13.07c0 0.49609 0.40234 0.90234 0.90234 0.90234 0.49609 0 0.90234-0.40234 0.90234-0.90234l-0.003906-12.215h3.4531v5.4648c0 0.49609 0.40234 0.89844 0.90234 0.89844 0.49609 0 0.90234-0.40234 0.90234-0.89844v-6.3203l0.79297-7.6992c0.91406-0.22266 1.6211-1.0117 1.6953-1.9844l0.62109-8.2734c0.046876-0.61328-0.16797-1.2227-0.58594-1.6758s-1.0117-0.71094-1.625-0.71094h-8.8555c-0.61328 0-1.2109 0.25781-1.6289 0.71094s-0.63281 1.0625-0.58594 1.6758l0.62109 8.2734c0.078125 0.97266 0.78516 1.7578 1.6992 1.9805zm6.1367 6.7578h-3.6289l-0.69141-6.6875h5.0078zm-6.5508-17.465c0.046876-0.050781 0.14844-0.13281 0.30859-0.13281h8.8555c0.15625 0 0.26172 0.085937 0.30469 0.13281 0.046876 0.050782 0.12109 0.15625 0.10938 0.31641l-0.62109 8.2734c-0.015625 0.21875-0.19922 0.38672-0.41797 0.38672h-7.6094c-0.21875 0-0.40234-0.16797-0.41797-0.38672l-0.62109-8.2734c-0.011719-0.15625 0.0625-0.26562 0.10937-0.31641z"/>
  <path d="m40.438 44.383c0.33594-0.22656 0.85547 0.042969 0.85547 0.45703v2.1211c0 0.41406-0.51172 0.6875-0.85547 0.46094-0.41406-0.27734-0.97266-0.16406-1.2461 0.25-0.27734 0.41406-0.16406 0.97266 0.25 1.2461 0.38672 0.25781 0.83594 0.39453 1.3008 0.39453 1.2969 0 2.3516-1.0547 2.3516-2.3516v-2.1211c0-1.2969-1.0547-2.3516-2.3516-2.3516-0.47266 0-0.92578 0.14062-1.3164 0.40234-0.41016 0.27734-0.51953 0.83984-0.23828 1.25 0.28125 0.41406 0.83984 0.52344 1.25 0.24219z"/>
  <path d="m40.746 53.98c-0.46875 0-0.92578 0.14062-1.3164 0.40234-0.41016 0.27734-0.51953 0.83984-0.24219 1.25 0.27734 0.41016 0.83594 0.51953 1.25 0.24219 0.0625-0.042969 0.16797-0.09375 0.30859-0.09375 0.30469 0 0.55078 0.24609 0.55078 0.55078v2.1211c0 0.41016-0.51953 0.68359-0.85547 0.46094-0.41406-0.27734-0.97266-0.16406-1.2461 0.25-0.27734 0.41406-0.16406 0.97266 0.25 1.2461 0.38672 0.25781 0.83594 0.39453 1.3008 0.39453 1.2969 0 2.3516-1.0547 2.3516-2.3516v-2.1211c-0.003906-1.2969-1.0586-2.3516-2.3516-2.3516z"/>
  <path d="m31.512 50.48c0.49609 0 0.89844-0.40234 0.89844-0.89844v-1.8125c0-0.49609-0.40234-0.89844-0.89844-0.89844-0.49609 0-0.89844 0.40234-0.89844 0.89844v1.8086c-0.003906 0.5 0.39844 0.90234 0.89844 0.90234z"/>
  <path d="m31.512 56.156c0.49609 0 0.89844-0.40234 0.89844-0.90234v-1.8086c0-0.49609-0.40234-0.89844-0.89844-0.89844-0.49609 0-0.89844 0.40234-0.89844 0.89844v1.8086c-0.003906 0.49609 0.39844 0.90234 0.89844 0.90234z"/>
  <path d="m35.613 53.453c0.49609 0 0.89844-0.40234 0.89844-0.89844v-1.8086c0-0.49609-0.40234-0.89844-0.89844-0.89844-0.49609 0-0.89844 0.40234-0.89844 0.89844v1.8086c0 0.49609 0.40234 0.89844 0.89844 0.89844z"/>
  <path d="m35.613 59.129c0.49609 0 0.89844-0.40234 0.89844-0.90234l0.003906-1.8086c0-0.49609-0.40234-0.90234-0.89844-0.90234-0.49609 0-0.89844 0.40234-0.89844 0.90234v1.8086c-0.003906 0.49609 0.39844 0.90234 0.89453 0.90234z"/>
  <path d="m35.613 47.777c0.49609 0 0.89844-0.40234 0.89844-0.89844v-1.8086c0-0.49609-0.40234-0.89844-0.89844-0.89844-0.49609 0-0.89844 0.40234-0.89844 0.89844v1.8086c0 0.49609 0.40234 0.89844 0.89844 0.89844z"/>
  <path d="m7.4961 42.492c-1.2969 0-2.3516 1.0547-2.3516 2.3516v2.1211c0 1.2969 1.0547 2.3516 2.3516 2.3516 0.46484 0 0.91406-0.13672 1.3008-0.39453 0.41406-0.27734 0.52734-0.83594 0.25-1.2461-0.27734-0.41406-0.83594-0.52734-1.2461-0.25-0.33984 0.22656-0.85547-0.046875-0.85547-0.46094v-2.1211c0-0.41406 0.51953-0.6875 0.85547-0.45703 0.41406 0.28125 0.97266 0.17188 1.25-0.23828 0.27734-0.41016 0.17188-0.97266-0.23828-1.25-0.39062-0.26953-0.84375-0.40625-1.3164-0.40625z"/>
  <path d="m7.4961 55.781c0.14062 0 0.24219 0.050781 0.30859 0.09375 0.41016 0.27734 0.97266 0.16797 1.25-0.24219 0.27734-0.41016 0.16797-0.97266-0.24219-1.25-0.39062-0.26562-0.84375-0.40234-1.3164-0.40234-1.2969 0-2.3516 1.0547-2.3516 2.3516v2.1211c0 1.2969 1.0547 2.3516 2.3516 2.3516 0.46484 0 0.91406-0.13672 1.3008-0.39453 0.41406-0.27734 0.52734-0.83594 0.25-1.2461-0.27734-0.41406-0.83594-0.52734-1.2461-0.25-0.33984 0.22266-0.85547-0.046874-0.85547-0.46094v-2.1211c0-0.30469 0.25-0.55078 0.55078-0.55078z"/>
  <path d="m16.73 46.867c-0.49609 0-0.89844 0.40234-0.89844 0.89844v1.8086c0 0.49609 0.40234 0.89844 0.89844 0.89844 0.49609 0 0.89844-0.40234 0.89844-0.89844l0.003906-1.8047c0-0.49609-0.40625-0.90234-0.90234-0.90234z"/>
  <path d="m16.73 52.543c-0.49609 0-0.89844 0.40234-0.89844 0.89844v1.8086c0 0.49609 0.40234 0.90234 0.89844 0.90234 0.49609 0 0.89844-0.40234 0.89844-0.90234v-1.8086c0.003906-0.49609-0.40234-0.89844-0.89844-0.89844z"/>
  <path d="m12.629 49.844c-0.49609 0-0.89844 0.40234-0.89844 0.89844v1.8086c0 0.49609 0.40234 0.89844 0.89844 0.89844s0.89844-0.40234 0.89844-0.89844v-1.8086c0-0.49609-0.40234-0.89844-0.89844-0.89844z"/>
  <path d="m12.629 55.516c-0.49609 0-0.89844 0.40234-0.89844 0.90234v1.8086c0 0.49609 0.40234 0.90234 0.89844 0.90234s0.89844-0.40234 0.89844-0.90234v-1.8086c0-0.5-0.40234-0.90234-0.89844-0.90234z"/>
  <path d="m12.629 44.168c-0.49609 0-0.89844 0.40234-0.89844 0.89844v1.8086c0 0.49609 0.40234 0.89844 0.89844 0.89844s0.89844-0.40234 0.89844-0.89844v-1.8086c0-0.49609-0.40234-0.89844-0.89844-0.89844z"/>
 </g>
</svg>