<svg xmlns="http://www.w3.org/2000/svg" viewBox="0 0 100 125" x="0px" y="0px"><g data-name="Layer 3"><path d="M44.053,53.216a5.843,5.843,0,0,0,4.015,1.276c4.853-.328,6.486-6.384,2.51-9.528a5.786,5.786,0,0,0-4.016-1.277C41.646,44.019,40.115,50.1,44.053,53.216Zm2.885-6.542c2.129,0,3.685,2.5,2.454,4.059a2.488,2.488,0,0,1-3.478.129C44.054,49.392,44.66,46.674,46.938,46.674ZM49.684,64.3a1.823,1.823,0,1,0-1.241,3.407A1.823,1.823,0,1,0,49.684,64.3ZM31.876,45.315c2.585.287,3.248-4.481.548-4.788C29.805,40.224,29.236,45,31.876,45.315Zm20.882-8.342c3.843,0,7.255-3.952,5.509-7.092h0a3.956,3.956,0,0,0-3.028-1.936c-4.009-.5-8.032,3.688-6.161,7.049A4.065,4.065,0,0,0,52.758,36.973Zm2.1-6.054c1.563.2.8,1.861-.564,2.621-1.114.619-2.311.506-2.594-.005C51.188,32.616,53.066,30.693,54.857,30.919Zm.9,31.323a5.11,5.11,0,1,0,9.375-1.075A5.12,5.12,0,0,0,55.759,62.242Zm4.922-.712a2.115,2.115,0,1,1-.583,4.151A2.133,2.133,0,0,1,60.681,61.53Zm2.972-12.673a1.947,1.947,0,1,0-1.338-2.405A1.949,1.949,0,0,0,63.653,48.857ZM34.387,62.229a4.233,4.233,0,0,0,3.684-6.284h0a4.229,4.229,0,1,0-3.684,6.285Zm-.6-5.306a1.228,1.228,0,1,1,.261,2.258A1.232,1.232,0,0,1,33.784,56.923ZM14.045,63.415a5.506,5.506,0,0,0-5.5,5.5c0,6.278,8.885,7.612,10.747,1.658l6.163-3.428A29.835,29.835,0,0,0,38.168,77.416a20.887,20.887,0,0,1-1.946,5.352,5.5,5.5,0,1,0,7.544,2.41,39.987,39.987,0,0,1,1.22-5.764,29.54,29.54,0,0,0,15-1.4c4.234,7.611,3.135,5.084,3.135,7.293a5.506,5.506,0,0,0,5.5,5.5c6.278,0,7.612-8.888,1.657-10.747l-3.2-5.751a29.685,29.685,0,0,0,10.714-14,23.428,23.428,0,0,1,4.18,1.51,5.5,5.5,0,1,0,2.166-7.616,18.243,18.243,0,0,1-4.7-.907,29.476,29.476,0,0,0-1.626-13.582c7.2-4.006,4.7-2.928,6.938-2.928a5.507,5.507,0,0,0,5.5-5.5c0-6.263-8.871-7.618-10.742-1.671l-5.44,3.027a29.689,29.689,0,0,0-12.9-10.266l1.642-5.758a5.5,5.5,0,1,0-7.639-2.387L53.426,20.36a29.722,29.722,0,0,0-14.5,1.888,22.6,22.6,0,0,1-2.051-4.064,5.509,5.509,0,0,0-5.319-6.906c-6.291,0-7.619,8.939-1.615,10.761a25.427,25.427,0,0,1,2.306,3.878,29.506,29.506,0,0,0-9.407,11.5l-3.809-1.085a5.5,5.5,0,1,0-2.385,7.639l3.83,1.091a29.829,29.829,0,0,0,1.286,14.977C13.656,64.553,16.256,63.415,14.045,63.415ZM67.816,81.8a1.554,1.554,0,0,0,1.209,1.04,2.5,2.5,0,1,1-2.71,1.506c.352-.846.317-.561-3.54-7.493.522-.251,1.04-.514,1.548-.8C64.65,75.873,64.173,75.251,67.816,81.8ZM82.284,30.88a2.5,2.5,0,1,1,1.5,2.716c-.848-.355-.632-.283-7.171,3.356a19.166,19.166,0,0,0-.924-1.776C82.313,31.49,82.14,31.767,82.284,30.88ZM58.049,13.229a2.5,2.5,0,1,1,2.956.935c-.916.348-.762.52-2.669,7.211q-.958-.285-1.936-.5C58.417,13.8,58.564,13.984,58.049,13.229ZM33.418,28.8a25.449,25.449,0,0,1,.917,3.537,1.5,1.5,0,0,0,2.951-.538,28.5,28.5,0,0,0-4.972-11.618,1.5,1.5,0,0,0-1.156-.929,2.5,2.5,0,1,1,2.9-2.469c0,.944-.686,1.519-.014,2.43a25.135,25.135,0,0,0,7.2,10.266A1.5,1.5,0,0,0,43.2,27.2a22.391,22.391,0,0,1-2.4-2.45,26.549,26.549,0,0,1,18.307.047A26.865,26.865,0,0,1,76.551,52.06a16.133,16.133,0,0,1-2.5-1.678,1.5,1.5,0,0,0-1.891,2.33,20.326,20.326,0,0,0,11.652,4.479,1.448,1.448,0,0,0,1.46-.161,2.5,2.5,0,1,1-.852,2.981,1.5,1.5,0,0,0-1.2-.918,25.729,25.729,0,0,0-11.868-2.509,1.5,1.5,0,0,0,.092,3,20.1,20.1,0,0,1,3.334.158A26.7,26.7,0,0,1,46.2,76.548a8.447,8.447,0,0,1,.97-1.333,1.5,1.5,0,0,0-2.248-1.987c-3.357,3.8-3.893,10.642-4.106,11.421a1.506,1.506,0,0,0,.087,1.556,2.5,2.5,0,1,1-2.956-.934,1.5,1.5,0,0,0,.94-1.118,22.807,22.807,0,0,0,2.689-11.539,1.5,1.5,0,0,0-3,.119c.021.522.014,1.054-.01,1.583A26.837,26.837,0,0,1,33.418,28.8ZM15.646,41.1a2.5,2.5,0,1,1,.931-2.955c.332.874.64.8,5.136,2.076-.218.631-.411,1.27-.587,1.913C16.238,40.737,16.337,40.627,15.646,41.1Zm7.275,21.736c.434.912.62,1.243.919,1.777-7.243,4.03-7.175,3.767-7.326,4.707a2.5,2.5,0,1,1-2.469-2.9C16.908,66.415,12.885,68.416,22.921,62.832Z"/></g></svg>