<svg width="150" height="300" viewBox="0 0 150 300" fill="none" xmlns="http://www.w3.org/2000/svg">
<path d="M-2.6226e-05 3.05176e-05C82.8427 3.05176e-05 150 67.1573 150 150C150 232.843 82.8427 300 -2.6226e-05 300C-2.57492e-05 143 -3.05176e-05 225.843 -3.05176e-05 143C-3.05176e-05 60.1573 -3.00407e-05 143 -2.6226e-05 3.05176e-05Z" fill="#B0ADAD"/>
<path d="M34.4091 150V138.364H35.8182V148.75H41.2273V150H34.4091ZM42.7926 138.364L46.2472 148.159H46.3835L49.8381 138.364H51.3153L47.0426 150H45.5881L41.3153 138.364H42.7926ZM53.1278 138.364H54.8097L58.7642 148.023H58.9006L62.8551 138.364H64.5369V150H63.2188V141.159H63.1051L59.4688 150H58.196L54.5597 141.159H54.446V150H53.1278V138.364ZM66.9759 150V148.977L73.2486 139.614H66.9077V138.364H74.9304V139.386L68.6577 148.75H74.9986V150H66.9759ZM85.0895 147.955V140.455H86.3622V147.955H85.0895ZM81.9759 144.841V143.568H89.4759V144.841H81.9759ZM97.3864 138.364L100.841 148.159H100.977L104.432 138.364H105.909L101.636 150H100.182L95.9091 138.364H97.3864ZM107.335 150V148.977L113.608 139.614H107.267V138.364H115.29V139.386L109.017 148.75H115.358V150H107.335Z" fill="black"/>
</svg>
