<svg width="150" height="300" viewBox="0 0 150 300" fill="none" xmlns="http://www.w3.org/2000/svg">
<path d="M150 0C67.1573 0 0 67.1573 0 150C0 232.843 67.1573 300 150 300C150 143 150 225.843 150 143C150 60.1573 150 143 150 0Z" fill="#FF9C9C"/>
<path d="M32.2273 144.182C32.2273 145.409 32.0057 146.47 31.5625 147.364C31.1193 148.258 30.5114 148.947 29.7386 149.432C28.9659 149.917 28.0833 150.159 27.0909 150.159C26.0985 150.159 25.2159 149.917 24.4432 149.432C23.6705 148.947 23.0625 148.258 22.6193 147.364C22.1761 146.47 21.9545 145.409 21.9545 144.182C21.9545 142.955 22.1761 141.894 22.6193 141C23.0625 140.106 23.6705 139.417 24.4432 138.932C25.2159 138.447 26.0985 138.205 27.0909 138.205C28.0833 138.205 28.9659 138.447 29.7386 138.932C30.5114 139.417 31.1193 140.106 31.5625 141C32.0057 141.894 32.2273 142.955 32.2273 144.182ZM30.8636 144.182C30.8636 143.174 30.6951 142.324 30.358 141.631C30.0246 140.938 29.572 140.413 29 140.057C28.4318 139.701 27.7955 139.523 27.0909 139.523C26.3864 139.523 25.7481 139.701 25.1761 140.057C24.608 140.413 24.1553 140.938 23.8182 141.631C23.4848 142.324 23.3182 143.174 23.3182 144.182C23.3182 145.189 23.4848 146.04 23.8182 146.733C24.1553 147.426 24.608 147.951 25.1761 148.307C25.7481 148.663 26.3864 148.841 27.0909 148.841C27.7955 148.841 28.4318 148.663 29 148.307C29.572 147.951 30.0246 147.426 30.358 146.733C30.6951 146.04 30.8636 145.189 30.8636 144.182ZM40.5966 143.227L39.392 143.568C39.3163 143.367 39.2045 143.172 39.0568 142.983C38.9129 142.79 38.7159 142.631 38.4659 142.506C38.2159 142.381 37.8958 142.318 37.5057 142.318C36.9716 142.318 36.5265 142.441 36.1705 142.688C35.8182 142.93 35.642 143.239 35.642 143.614C35.642 143.947 35.7633 144.21 36.0057 144.403C36.2481 144.597 36.6269 144.758 37.142 144.886L38.4375 145.205C39.2178 145.394 39.7992 145.684 40.1818 146.074C40.5644 146.46 40.7557 146.958 40.7557 147.568C40.7557 148.068 40.6117 148.515 40.3239 148.909C40.0398 149.303 39.642 149.614 39.1307 149.841C38.6193 150.068 38.0246 150.182 37.3466 150.182C36.4564 150.182 35.7197 149.989 35.1364 149.602C34.553 149.216 34.1837 148.652 34.0284 147.909L35.3011 147.591C35.4223 148.061 35.6515 148.413 35.9886 148.648C36.3295 148.883 36.7746 149 37.3239 149C37.9489 149 38.4451 148.867 38.8125 148.602C39.1837 148.333 39.3693 148.011 39.3693 147.636C39.3693 147.333 39.2633 147.08 39.0511 146.875C38.839 146.667 38.5133 146.511 38.0739 146.409L36.6193 146.068C35.8201 145.879 35.233 145.585 34.858 145.188C34.4867 144.786 34.3011 144.284 34.3011 143.682C34.3011 143.189 34.4394 142.754 34.7159 142.375C34.9962 141.996 35.3769 141.699 35.858 141.483C36.3428 141.267 36.892 141.159 37.5057 141.159C38.3693 141.159 39.0473 141.348 39.5398 141.727C40.036 142.106 40.3883 142.606 40.5966 143.227ZM36.3239 137.773L37.5057 139.364L38.6875 137.773H39.9602V137.864L38.1193 140.227H36.892L35.0511 137.864V137.773H36.3239ZM46.4332 150.182C45.5923 150.182 44.867 149.996 44.2571 149.625C43.651 149.25 43.1832 148.727 42.8537 148.057C42.5279 147.383 42.3651 146.598 42.3651 145.705C42.3651 144.811 42.5279 144.023 42.8537 143.341C43.1832 142.655 43.6416 142.121 44.2287 141.739C44.8196 141.352 45.509 141.159 46.2969 141.159C46.7514 141.159 47.2003 141.235 47.6435 141.386C48.0866 141.538 48.4901 141.784 48.8537 142.125C49.2173 142.462 49.5071 142.909 49.723 143.466C49.9389 144.023 50.0469 144.708 50.0469 145.523V146.091H43.3196V144.932H48.6832C48.6832 144.439 48.5848 144 48.3878 143.614C48.1946 143.227 47.9181 142.922 47.5582 142.699C47.2022 142.475 46.7817 142.364 46.2969 142.364C45.7628 142.364 45.3007 142.496 44.9105 142.761C44.5241 143.023 44.2268 143.364 44.0185 143.784C43.8101 144.205 43.706 144.655 43.706 145.136V145.909C43.706 146.568 43.8196 147.127 44.0469 147.585C44.2779 148.04 44.598 148.386 45.0071 148.625C45.4162 148.86 45.8916 148.977 46.4332 148.977C46.7855 148.977 47.1037 148.928 47.3878 148.83C47.6757 148.727 47.9238 148.576 48.1321 148.375C48.3404 148.17 48.5014 147.917 48.6151 147.614L49.9105 147.977C49.7741 148.417 49.545 148.803 49.223 149.136C48.901 149.466 48.5033 149.723 48.0298 149.909C47.5563 150.091 47.0241 150.182 46.4332 150.182ZM55.8821 141.273V142.409H51.3594V141.273H55.8821ZM52.6776 139.182H54.0185V147.5C54.0185 147.879 54.0734 148.163 54.1832 148.352C54.2969 148.538 54.4408 148.663 54.6151 148.727C54.7931 148.788 54.9806 148.818 55.1776 148.818C55.3253 148.818 55.4465 148.811 55.5412 148.795C55.6359 148.777 55.7116 148.761 55.7685 148.75L56.0412 149.955C55.9503 149.989 55.8234 150.023 55.6605 150.057C55.4976 150.095 55.2912 150.114 55.0412 150.114C54.6624 150.114 54.2912 150.032 53.9276 149.869C53.5677 149.706 53.2685 149.458 53.0298 149.125C52.795 148.792 52.6776 148.371 52.6776 147.864V139.182ZM57.8991 150V141.273H59.1946V142.591H59.2855C59.4446 142.159 59.7325 141.809 60.1491 141.54C60.5658 141.271 61.0355 141.136 61.5582 141.136C61.6567 141.136 61.7798 141.138 61.9276 141.142C62.0753 141.146 62.187 141.152 62.2628 141.159V142.523C62.2173 142.511 62.1132 142.494 61.9503 142.472C61.7912 142.445 61.6226 142.432 61.4446 142.432C61.0204 142.432 60.6416 142.521 60.3082 142.699C59.9787 142.873 59.7173 143.116 59.5241 143.426C59.3348 143.733 59.2401 144.083 59.2401 144.477V150H57.8991ZM67.1321 150.182C66.3442 150.182 65.6529 149.994 65.0582 149.619C64.4673 149.244 64.0052 148.72 63.6719 148.045C63.3423 147.371 63.1776 146.583 63.1776 145.682C63.1776 144.773 63.3423 143.979 63.6719 143.301C64.0052 142.623 64.4673 142.097 65.0582 141.722C65.6529 141.347 66.3442 141.159 67.1321 141.159C67.92 141.159 68.6094 141.347 69.2003 141.722C69.795 142.097 70.2571 142.623 70.5866 143.301C70.92 143.979 71.0866 144.773 71.0866 145.682C71.0866 146.583 70.92 147.371 70.5866 148.045C70.2571 148.72 69.795 149.244 69.2003 149.619C68.6094 149.994 67.92 150.182 67.1321 150.182ZM67.1321 148.977C67.7306 148.977 68.223 148.824 68.6094 148.517C68.9957 148.21 69.2817 147.807 69.4673 147.307C69.6529 146.807 69.7457 146.265 69.7457 145.682C69.7457 145.098 69.6529 144.555 69.4673 144.051C69.2817 143.547 68.9957 143.14 68.6094 142.83C68.223 142.519 67.7306 142.364 67.1321 142.364C66.5336 142.364 66.0412 142.519 65.6548 142.83C65.2685 143.14 64.9825 143.547 64.7969 144.051C64.6113 144.555 64.5185 145.098 64.5185 145.682C64.5185 146.265 64.6113 146.807 64.7969 147.307C64.9825 147.807 65.2685 148.21 65.6548 148.517C66.0412 148.824 66.5336 148.977 67.1321 148.977ZM79.9574 141.273L76.7301 150H75.3665L72.1392 141.273H73.5938L76.0028 148.227H76.0938L78.5028 141.273H79.9574ZM84.0298 150.205C83.4768 150.205 82.9749 150.1 82.5241 149.892C82.0734 149.68 81.7154 149.375 81.4503 148.977C81.1851 148.576 81.0526 148.091 81.0526 147.523C81.0526 147.023 81.151 146.617 81.348 146.307C81.545 145.992 81.8082 145.746 82.1378 145.568C82.4673 145.39 82.831 145.258 83.2287 145.17C83.6302 145.08 84.0336 145.008 84.4389 144.955C84.9692 144.886 85.3991 144.835 85.7287 144.801C86.062 144.763 86.3045 144.701 86.456 144.614C86.6113 144.527 86.6889 144.375 86.6889 144.159V144.114C86.6889 143.553 86.5355 143.117 86.2287 142.807C85.9257 142.496 85.4654 142.341 84.848 142.341C84.2079 142.341 83.706 142.481 83.3423 142.761C82.9787 143.042 82.723 143.341 82.5753 143.659L81.3026 143.205C81.5298 142.674 81.8329 142.261 82.2116 141.966C82.5942 141.667 83.0109 141.458 83.4616 141.341C83.9162 141.22 84.3632 141.159 84.8026 141.159C85.0829 141.159 85.4048 141.193 85.7685 141.261C86.1359 141.326 86.4901 141.46 86.831 141.665C87.1757 141.869 87.4616 142.178 87.6889 142.591C87.9162 143.004 88.0298 143.557 88.0298 144.25V150H86.6889V148.818H86.6207C86.5298 149.008 86.3783 149.21 86.1662 149.426C85.9541 149.642 85.6719 149.826 85.3196 149.977C84.9673 150.129 84.5374 150.205 84.0298 150.205ZM84.2344 149C84.7647 149 85.2116 148.896 85.5753 148.688C85.9427 148.479 86.2192 148.21 86.4048 147.881C86.5942 147.551 86.6889 147.205 86.6889 146.841V145.614C86.6321 145.682 86.5071 145.744 86.3139 145.801C86.1245 145.854 85.9048 145.902 85.6548 145.943C85.4086 145.981 85.1681 146.015 84.9332 146.045C84.7022 146.072 84.5147 146.095 84.3707 146.114C84.0223 146.159 83.6965 146.233 83.3935 146.335C83.0942 146.434 82.8518 146.583 82.6662 146.784C82.4844 146.981 82.3935 147.25 82.3935 147.591C82.3935 148.057 82.5658 148.409 82.9105 148.648C83.259 148.883 83.7003 149 84.2344 149ZM94.2727 141.273V142.409H89.75V141.273H94.2727ZM91.0682 139.182H92.4091V147.5C92.4091 147.879 92.464 148.163 92.5739 148.352C92.6875 148.538 92.8314 148.663 93.0057 148.727C93.1837 148.788 93.3712 148.818 93.5682 148.818C93.7159 148.818 93.8371 148.811 93.9318 148.795C94.0265 148.777 94.1023 148.761 94.1591 148.75L94.4318 149.955C94.3409 149.989 94.214 150.023 94.0511 150.057C93.8883 150.095 93.6818 150.114 93.4318 150.114C93.053 150.114 92.6818 150.032 92.3182 149.869C91.9583 149.706 91.6591 149.458 91.4205 149.125C91.1856 148.792 91.0682 148.371 91.0682 147.864V139.182ZM99.8551 150.182C99.0142 150.182 98.2888 149.996 97.679 149.625C97.0729 149.25 96.6051 148.727 96.2756 148.057C95.9498 147.383 95.7869 146.598 95.7869 145.705C95.7869 144.811 95.9498 144.023 96.2756 143.341C96.6051 142.655 97.0634 142.121 97.6506 141.739C98.2415 141.352 98.9309 141.159 99.7188 141.159C100.173 141.159 100.622 141.235 101.065 141.386C101.509 141.538 101.912 141.784 102.276 142.125C102.639 142.462 102.929 142.909 103.145 143.466C103.361 144.023 103.469 144.708 103.469 145.523V146.091H96.7415V144.932H102.105C102.105 144.439 102.007 144 101.81 143.614C101.616 143.227 101.34 142.922 100.98 142.699C100.624 142.475 100.204 142.364 99.7188 142.364C99.1847 142.364 98.7225 142.496 98.3324 142.761C97.946 143.023 97.6487 143.364 97.4403 143.784C97.232 144.205 97.1278 144.655 97.1278 145.136V145.909C97.1278 146.568 97.2415 147.127 97.4688 147.585C97.6998 148.04 98.0199 148.386 98.429 148.625C98.8381 148.86 99.3134 148.977 99.8551 148.977C100.207 148.977 100.526 148.928 100.81 148.83C101.098 148.727 101.346 148.576 101.554 148.375C101.762 148.17 101.923 147.917 102.037 147.614L103.332 147.977C103.196 148.417 102.967 148.803 102.645 149.136C102.323 149.466 101.925 149.723 101.452 149.909C100.978 150.091 100.446 150.182 99.8551 150.182ZM106.849 138.364V150H105.509V138.364H106.849ZM107.963 140.761V137.818H109.338L108.94 140.761H107.963ZM116.565 143.227L115.361 143.568C115.285 143.367 115.173 143.172 115.026 142.983C114.882 142.79 114.685 142.631 114.435 142.506C114.185 142.381 113.865 142.318 113.474 142.318C112.94 142.318 112.495 142.441 112.139 142.688C111.787 142.93 111.611 143.239 111.611 143.614C111.611 143.947 111.732 144.21 111.974 144.403C112.217 144.597 112.596 144.758 113.111 144.886L114.406 145.205C115.187 145.394 115.768 145.684 116.151 146.074C116.533 146.46 116.724 146.958 116.724 147.568C116.724 148.068 116.58 148.515 116.293 148.909C116.009 149.303 115.611 149.614 115.099 149.841C114.588 150.068 113.993 150.182 113.315 150.182C112.425 150.182 111.688 149.989 111.105 149.602C110.522 149.216 110.152 148.652 109.997 147.909L111.27 147.591C111.391 148.061 111.62 148.413 111.957 148.648C112.298 148.883 112.743 149 113.293 149C113.918 149 114.414 148.867 114.781 148.602C115.152 148.333 115.338 148.011 115.338 147.636C115.338 147.333 115.232 147.08 115.02 146.875C114.808 146.667 114.482 146.511 114.043 146.409L112.588 146.068C111.789 145.879 111.202 145.585 110.827 145.188C110.455 144.786 110.27 144.284 110.27 143.682C110.27 143.189 110.408 142.754 110.685 142.375C110.965 141.996 111.346 141.699 111.827 141.483C112.312 141.267 112.861 141.159 113.474 141.159C114.338 141.159 115.016 141.348 115.509 141.727C116.005 142.106 116.357 142.606 116.565 143.227ZM122.538 141.273V142.409H118.016V141.273H122.538ZM119.334 139.182H120.675V147.5C120.675 147.879 120.73 148.163 120.839 148.352C120.953 148.538 121.097 148.663 121.271 148.727C121.449 148.788 121.637 148.818 121.834 148.818C121.982 148.818 122.103 148.811 122.197 148.795C122.292 148.777 122.368 148.761 122.425 148.75L122.697 149.955C122.607 149.989 122.48 150.023 122.317 150.057C122.154 150.095 121.947 150.114 121.697 150.114C121.319 150.114 120.947 150.032 120.584 149.869C120.224 149.706 119.925 149.458 119.686 149.125C119.451 148.792 119.334 148.371 119.334 147.864V139.182ZM131.692 141.273L128.464 150H127.101L123.874 141.273H125.328L127.737 148.227H127.828L130.237 141.273H131.692ZM136.695 150.182C135.907 150.182 135.215 149.994 134.621 149.619C134.03 149.244 133.568 148.72 133.234 148.045C132.905 147.371 132.74 146.583 132.74 145.682C132.74 144.773 132.905 143.979 133.234 143.301C133.568 142.623 134.03 142.097 134.621 141.722C135.215 141.347 135.907 141.159 136.695 141.159C137.482 141.159 138.172 141.347 138.763 141.722C139.357 142.097 139.82 142.623 140.149 143.301C140.482 143.979 140.649 144.773 140.649 145.682C140.649 146.583 140.482 147.371 140.149 148.045C139.82 148.72 139.357 149.244 138.763 149.619C138.172 149.994 137.482 150.182 136.695 150.182ZM136.695 148.977C137.293 148.977 137.786 148.824 138.172 148.517C138.558 148.21 138.844 147.807 139.03 147.307C139.215 146.807 139.308 146.265 139.308 145.682C139.308 145.098 139.215 144.555 139.03 144.051C138.844 143.547 138.558 143.14 138.172 142.83C137.786 142.519 137.293 142.364 136.695 142.364C136.096 142.364 135.604 142.519 135.217 142.83C134.831 143.14 134.545 143.547 134.359 144.051C134.174 144.555 134.081 145.098 134.081 145.682C134.081 146.265 134.174 146.807 134.359 147.307C134.545 147.807 134.831 148.21 135.217 148.517C135.604 148.824 136.096 148.977 136.695 148.977Z" fill="black"/>
</svg>
