<svg xmlns="http://www.w3.org/2000/svg" xmlns:xlink="http://www.w3.org/1999/xlink" version="1.1" x="0px" y="0px" viewBox="0 0 68 85" style="enable-background:new 0 0 68 68;" xml:space="preserve"><g><g><g><g><g><g><path d="M53.375,37.9591064c-0.0087891,0-0.0175781,0-0.0263672,0        c-2.7138672-0.0078125-5.2597656-1.0703125-7.1679688-2.9931641        c-3.953125-3.9531231-3.9580078-10.3945293-0.0078125-14.3554668c0.390625-0.3916016,1.0234375-0.3916016,1.4140625-0.0019531        c0.3916016,0.3896484,0.3916016,1.0234375,0.0019531,1.4140625        c-3.1728516,3.1816406-3.1689453,8.3544922,0.0087891,11.5322247        c1.5341797,1.5458984,3.5771484,2.3984375,5.7558594,2.4042969c0.0068359,0,0.0146484,0,0.0214844,0        c2.1806641,0,4.2294922-0.8476563,5.7734375-2.3867188C62.921875,29.8077412,65,24.8018818,65,19.477663        S62.921875,9.1475849,59.1484375,5.3829365c-3.1962891-3.1777344-8.3789063-3.1748047-11.5498047,0.0078125        c-2.9306641,2.9384766-3.2070313,7.5966797-0.6425781,10.8339844c0.3427734,0.4326172,0.2695313,1.0625-0.1630859,1.4052734        c-0.4335938,0.3427734-1.0634766,0.2685547-1.4052734-0.1630859        c-3.1943359-4.0332031-2.8525391-9.8310547,0.7949219-13.4882813        c3.9501953-3.9619141,10.3994141-3.96875,14.3769531-0.0126953C64.7128906,8.1104755,67,13.618288,67,19.477663        s-2.2871094,11.3671875-6.4394531,15.5107403C58.6396484,36.9044189,56.0888672,37.9591064,53.375,37.9591064z"/></g></g></g><g><g><g><path d="M41.2548828,66.9971924c-0.5527344,0-1-0.4472656-1-1v-2.4492188c0-0.5527344,0.4472656-1,1-1s1,0.4472656,1,1        v2.4492188C42.2548828,66.5499268,41.8076172,66.9971924,41.2548828,66.9971924z"/></g></g><g><g><path d="M41.2548828,47.0870361c-0.5527344,0-1-0.4472656-1-1V20.9971943        c0-0.5283203,0.4111328-0.9658203,0.9384766-0.9980469c9.8173828-0.6083984,13.4423828,3.2617188,13.5917969,3.4267578        c0.3710938,0.4091797,0.3408203,1.0410156-0.0683594,1.4121094c-0.4072266,0.3710938-1.0400391,0.3417969-1.4121094-0.0683594        c-0.0244141-0.0253906-2.9941406-3.0849609-11.0498047-2.8183594v24.1357403        C42.2548828,46.6397705,41.8076172,47.0870361,41.2548828,47.0870361z"/></g></g><g><g><path d="M37.1162109,66.9952393c-0.5527344,0-1-0.4472656-1-1V19.8653584c0-2.0849609,1.6962891-3.78125,3.78125-3.78125        h2.1201172c8.7099609,0,11.2265625-2.8613281,11.25-2.8896484c0.3525391-0.4179688,0.9804688-0.4804688,1.4023438-0.1367188        c0.4228516,0.3457031,0.4960938,0.9589844,0.1582031,1.3876953        c-0.1171875,0.1484375-2.9814453,3.6386719-12.8105469,3.6386719h-2.1201172c-0.9824219,0-1.78125,0.7988281-1.78125,1.78125        v46.1298828C38.1162109,66.5479736,37.6689453,66.9952393,37.1162109,66.9952393z"/></g></g></g></g><g><g><g><g><path d="M14.6259766,37.9591064c-2.7138672,0-5.2646484-1.0546875-7.1855469-2.9707031        C3.2871094,30.8448505,1,25.337038,1,19.477663S3.2871094,8.1104755,7.4404297,3.9669209        c3.9746094-3.9570313,10.4248047-3.9511719,14.3779297,0.0117188        c3.6464844,3.6572266,3.9873047,9.4560547,0.7939453,13.4882813        c-0.3408203,0.4326172-0.9716797,0.5068359-1.4052734,0.1630859        c-0.4326172-0.3427734-0.5058594-0.9726563-0.1630859-1.4052734        c2.5644531-3.2373047,2.2890625-7.8945313-0.6416016-10.8339844C17.2285156,2.2100849,12.046875,2.2052021,8.8515625,5.383913        C5.078125,9.1485615,3,14.1534443,3,19.477663s2.078125,10.3291016,5.8525391,14.0947247        c1.5439453,1.5390625,3.59375,2.3867188,5.7734375,2.3867188c0.0068359,0,0.0146484,0,0.0214844,0        c2.1787109-0.0058594,4.2216797-0.8583984,5.7529297-2.4013672c3.1796875-3.1806622,3.1835938-8.3544903,0.0107422-11.5351543        c-0.3896484-0.390625-0.3896484-1.0244141,0.0019531-1.4140625s1.0244141-0.3896484,1.4140625,0.0019531        c3.9501953,3.9599609,3.9462891,10.4013672-0.0097656,14.3583965        c-1.9052734,1.9199219-4.4511719,2.9824219-7.1650391,2.9902344        C14.6435547,37.9591064,14.6347656,37.9591064,14.6259766,37.9591064z"/></g></g></g><g><g><g><path d="M26.7470703,66.9952393c-0.5527344,0-1-0.4472656-1-1V21.9542255        c-8.0400391-0.2607422-11.0253906,2.7929688-11.0556641,2.8251953        c-0.3759766,0.3984375-1.0058594,0.4257813-1.4091797,0.0527344        c-0.4033203-0.3720703-0.4345703-0.9960938-0.0664063-1.4023438        c0.1494141-0.1650391,3.7597656-4.0332031,13.5927734-3.4277344c0.5273438,0.0322266,0.9384766,0.4697266,0.9384766,0.9980469        v44.9951172C27.7470703,66.5479736,27.2998047,66.9952393,26.7470703,66.9952393z"/></g></g><g><g><path d="M30.8847656,66.9952393c-0.5527344,0-1-0.4472656-1-1V19.8653584c0-0.9824219-0.7988281-1.78125-1.78125-1.78125        h-2.1210938c-9.8291016,0-12.6933594-3.4902344-12.8105469-3.6386719        c-0.3417969-0.4335938-0.2675781-1.0625,0.1660156-1.4042969c0.4355469-0.3408203,1.0634766-0.2666016,1.4042969,0.1660156        c0.0136719,0.015625,2.5302734,2.8769531,11.2402344,2.8769531h2.1210938c2.0849609,0,3.78125,1.6962891,3.78125,3.78125        v46.1298828C31.8847656,66.5479736,31.4375,66.9952393,30.8847656,66.9952393z"/></g></g></g></g></g><g><g><g><path d="M54.2695313,63.4952393c-4.7861328,0-8.6796875-3.8935547-8.6796875-8.6796875s3.8935547-8.6796875,8.6796875-8.6796875      s8.6806641,3.8935547,8.6806641,8.6796875S59.0556641,63.4952393,54.2695313,63.4952393z M54.2695313,48.1358643      c-3.6835938,0-6.6796875,2.9960938-6.6796875,6.6796875s2.9960938,6.6796875,6.6796875,6.6796875      s6.6806641-2.9960938,6.6806641-6.6796875S57.953125,48.1358643,54.2695313,48.1358643z"/></g></g><g><g><g><path d="M66,55.8184814h-6.4111328c-0.5527344,0-1-0.4472656-1-1s0.4472656-1,1-1H66c0.5527344,0,1,0.4472656,1,1       S66.5527344,55.8184814,66,55.8184814z"/></g></g><g><g><path d="M66,57.8585205c-0.5527344,0-1-0.4472656-1-1v-4.0800781c0-0.5527344,0.4472656-1,1-1s1,0.4472656,1,1v4.0800781       C67,57.4112549,66.5527344,57.8585205,66,57.8585205z"/></g></g></g><g><g><g><path d="M56.9296875,51.2130127c-0.1699219,0-0.3417969-0.0429688-0.4990234-0.1337891       c-0.4785156-0.2763672-0.6425781-0.8876953-0.3662109-1.3662109l3.2050781-5.5517578       c0.2763672-0.4785156,0.8886719-0.6425781,1.3662109-0.3662109c0.4785156,0.2763672,0.6425781,0.8876953,0.3662109,1.3662109       l-3.2050781,5.5517578C57.6113281,51.0333252,57.2753906,51.2130127,56.9296875,51.2130127z"/></g></g><g><g><path d="M61.9013672,46.6807861c-0.1699219,0-0.3417969-0.0429688-0.4990234-0.1337891l-3.5332031-2.0400391       c-0.4785156-0.2763672-0.6425781-0.8876953-0.3662109-1.3662109c0.2763672-0.4794922,0.8876953-0.6425781,1.3662109-0.3662109       l3.5332031,2.0400391c0.4785156,0.2763672,0.6425781,0.8876953,0.3662109,1.3662109       C62.5830078,46.5020752,62.2470703,46.6807861,61.9013672,46.6807861z"/></g></g></g><g><g><g><path d="M51.6132813,51.2130127c-0.3457031,0-0.6816406-0.1787109-0.8671875-0.5l-3.2050781-5.5517578       c-0.2763672-0.4785156-0.1123047-1.0898438,0.3662109-1.3662109c0.4765625-0.2763672,1.0888672-0.1132813,1.3662109,0.3662109       l3.2050781,5.5517578c0.2763672,0.4785156,0.1123047,1.0898438-0.3662109,1.3662109       C51.9550781,51.1700439,51.7832031,51.2130127,51.6132813,51.2130127z"/></g></g><g><g><path d="M46.6416016,46.6807861c-0.3457031,0-0.6816406-0.1787109-0.8671875-0.5       c-0.2763672-0.4785156-0.1123047-1.0898438,0.3662109-1.3662109l3.5332031-2.0400391       c0.4755859-0.2763672,1.0888672-0.1132813,1.3662109,0.3662109c0.2763672,0.4785156,0.1123047,1.0898438-0.3662109,1.3662109       l-3.5332031,2.0400391C46.9833984,46.6378174,46.8115234,46.6807861,46.6416016,46.6807861z"/></g></g></g><g><g><g><path d="M48.9541016,55.8184814h-6.4111328c-0.5527344,0-1-0.4472656-1-1s0.4472656-1,1-1h6.4111328       c0.5527344,0,1,0.4472656,1,1S49.5068359,55.8184814,48.9541016,55.8184814z"/></g></g><g><g><path d="M42.5429688,57.8585205c-0.5527344,0-1-0.4472656-1-1v-4.0800781c0-0.5527344,0.4472656-1,1-1s1,0.4472656,1,1       v4.0800781C43.5429688,57.4112549,43.0957031,57.8585205,42.5429688,57.8585205z"/></g></g></g><g><g><g><path d="M48.40625,65.975708c-0.1699219,0-0.3417969-0.0429688-0.4990234-0.1337891       c-0.4785156-0.2763672-0.6425781-0.8876953-0.3662109-1.3662109l3.2050781-5.5527344       c0.2763672-0.4775391,0.8886719-0.6425781,1.3662109-0.3662109c0.4785156,0.2763672,0.6425781,0.8876953,0.3662109,1.3662109       l-3.2050781,5.5527344C49.0878906,65.7960205,48.7519531,65.975708,48.40625,65.975708z"/></g></g><g><g><path d="M50.1728516,66.9952393c-0.1699219,0-0.3417969-0.0429688-0.4990234-0.1337891l-3.5332031-2.0400391       c-0.4785156-0.2763672-0.6425781-0.8876953-0.3662109-1.3662109c0.2763672-0.4804688,0.8886719-0.6425781,1.3662109-0.3662109       l3.5332031,2.0400391c0.4785156,0.2763672,0.6425781,0.8876953,0.3662109,1.3662109       C50.8544922,66.8165283,50.5185547,66.9952393,50.1728516,66.9952393z"/></g></g></g><g><g><g><path d="M60.1367188,65.975708c-0.3457031,0-0.6816406-0.1796875-0.8671875-0.5l-3.2050781-5.5527344       c-0.2763672-0.4785156-0.1123047-1.0898438,0.3662109-1.3662109c0.4765625-0.2763672,1.0888672-0.1113281,1.3662109,0.3662109       l3.2050781,5.5527344c0.2763672,0.4785156,0.1123047,1.0898438-0.3662109,1.3662109       C60.4785156,65.9327393,60.3066406,65.975708,60.1367188,65.975708z"/></g></g><g><g><path d="M58.3701172,66.9952393c-0.3457031,0-0.6816406-0.1787109-0.8671875-0.5       c-0.2763672-0.4785156-0.1123047-1.0898438,0.3662109-1.3662109l3.5332031-2.0400391       c0.4765625-0.2763672,1.0888672-0.1142578,1.3662109,0.3662109c0.2763672,0.4785156,0.1123047,1.0898438-0.3662109,1.3662109       l-3.5332031,2.0400391C58.7119141,66.9522705,58.5400391,66.9952393,58.3701172,66.9952393z"/></g></g></g></g></g></svg>