<svg xmlns="http://www.w3.org/2000/svg" data-name="Layer 1" viewBox="0 0 512 640" x="0px" y="0px"><title>N_F013_02Artboard 1 copy 12</title><path d="M165.77,418.61c-68.52-28.74-63.65-75.16-63.41-77.15a7.51,7.51,0,0,0-14.88-2c-.32,2.42-7.17,59.57,72.48,93a7.27,7.27,0,0,0,2.9.59,7.5,7.5,0,0,0,2.91-14.42Z"/><path d="M222.49,438.65l-9.32-2.24a36.39,36.39,0,0,0,.56-3.68c1.51-15.56-6.49-33-22.52-40.92l5.35-10.18a7.51,7.51,0,1,0-13.29-7l-6.76,12.87c-10.94-2.42-19.08-10.4-24.08-16.88a45.91,45.91,0,0,1-3.87-5.91l11.77-7a7.5,7.5,0,1,0-7.7-12.88l-9.46,5.65c-2.18-8.24-6.45-21.09-13.85-32.37l7-5.54A7.51,7.51,0,0,0,127,300.78l-7.27,5.75a43.76,43.76,0,0,0-13.37-8.76l2.22-16a7.51,7.51,0,1,0-14.88-2.05l-2.08,15.08a46.06,46.06,0,0,0-16.25,2.37L67,282.46a7.5,7.5,0,0,0-13,7.45l8.32,14.54a39.1,39.1,0,0,0-8.46,9.88,39.78,39.78,0,0,0-1.92,3.6l-15.84-8a7.51,7.51,0,1,0-6.75,13.41l18.45,9.29c-1,8.89-.15,20.2,4.91,34.15L36.2,371.22A7.5,7.5,0,0,0,38.14,386a7.73,7.73,0,0,0,2-.25l18.62-5a185.19,185.19,0,0,0,13.35,22.2,149.8,149.8,0,0,0,11.76,15.93l-8,7.09a7.5,7.5,0,1,0,10,11.22L93.92,430c9.71,9.78,22.38,20.13,37.53,27.31l-4,7.08a7.5,7.5,0,0,0,2.78,10.24,7.39,7.39,0,0,0,3.72,1,7.51,7.51,0,0,0,6.52-3.77l5.21-9.09a87.8,87.8,0,0,0,21.18,3.64c1.2.06,2.39.08,3.54.08.56,0,1.11,0,1.66,0l1.6,11.82a7.5,7.5,0,0,0,7.42,6.49,7,7,0,0,0,1-.06,7.51,7.51,0,0,0,6.43-8.45l-1.62-12c9.27-2.75,15.87-7.81,20.22-13.81L219,453.25a7.61,7.61,0,0,0,1.76.2,7.5,7.5,0,0,0,1.74-14.8Zm-55,12.71c-48.89-2.27-82.44-55.93-82.77-56.47-.07-.12-.15-.24-.23-.36A158.79,158.79,0,0,1,69.62,368.6a.69.69,0,0,1-.05-.13c-8.41-19-9.57-35.27-2.88-46.42,4.72-7.86,13.28-12.29,23.39-12.29a36.25,36.25,0,0,1,4.25.25c7.57.89,13.69,5.2,18.59,11l.24.33a7.73,7.73,0,0,0,.6.67c8.53,10.61,13.2,25.55,15.24,33.64a65.83,65.83,0,0,0,11.54,24.2c10.06,13,22.49,20.95,35.94,22.94,15.26,2.26,23.47,16.57,22.31,28.52a21.59,21.59,0,0,1-1.78,6.84,7.85,7.85,0,0,0-.38.77C192.28,447.46,181.91,452,167.5,451.36Z"/><path d="M480.91,341.31l-31.57-6.88a214.1,214.1,0,0,0-5.23-53.81l31.11-7.79a7.51,7.51,0,1,0-3.65-14.56l-31.19,7.81a252.83,252.83,0,0,0-9.07-26A384.68,384.68,0,0,0,410.26,197l20.29-8.17a7.5,7.5,0,1,0-5.6-13.92l-22.45,9A332.83,332.83,0,0,0,359,127.73L380.66,106A7.5,7.5,0,0,0,370,95.43l-21.79,21.82a220,220,0,0,0-46.78-33.4L316,57.28a7.51,7.51,0,0,0-13.17-7.21l-15,27.38A158.82,158.82,0,0,0,251.57,67l3.05-31.47a7.51,7.51,0,0,0-14.94-1.45l-3,31.27a151.76,151.76,0,0,0-21.61.24,91.24,91.24,0,0,0-27,6.45l-11-32.86a7.51,7.51,0,0,0-14.24,4.77l11.71,35a88.55,88.55,0,0,0-32.12,34.59H103.23a7.51,7.51,0,1,0,0,15h33.19a84.3,84.3,0,0,0-3.33,20.24c-.78,19.32,5.36,36.24,17.91,49.75L133,205.27a7.5,7.5,0,0,0,2.64,14.53,7.4,7.4,0,0,0,2.63-.48l25.72-9.64c.61.43,1.23.85,1.87,1.27,21.73,14.4,38.26,25.93,50.54,34.82l-16.22,29.71a7.51,7.51,0,0,0,13.18,7.19l15.23-27.91c13.14,9.9,18.35,14.57,18.45,14.66l.23.2c.22.18,13.29,11.37,24.77,32.31l-28.41,15.34a7.51,7.51,0,0,0,3.57,14.11,7.37,7.37,0,0,0,3.56-.91l27.79-15a137.82,137.82,0,0,1,9.93,39.28,217.23,217.23,0,0,0,3.32,22l-26.58,14.93a7.51,7.51,0,0,0,7.35,13.09l23.07-13q6.63,21.44,18.28,35.23L298.63,445a7.51,7.51,0,0,0,11.43,9.73l14.72-17.28a61.9,61.9,0,0,0,33.77,12.29V473.2a7.51,7.51,0,1,0,15,0V449.29c1.25-.15,2.51-.31,3.79-.51,16-2.49,31.44-12.59,43.76-28.36l21.83,20.24a7.5,7.5,0,0,0,10.2-11L429.6,407.83l.72-1.25c9.5-16.87,15.46-36.25,17.89-57l29.5,6.43a7.41,7.41,0,0,0,1.61.17,7.51,7.51,0,0,0,1.59-14.84Zm-63.67,57.91q-1.55,2.73-3.19,5.28a7.66,7.66,0,0,0-.65,1c-10.64,16-24.34,26.28-38.36,28.45-16.69,2.58-30.74-.4-41.73-8.89a51.09,51.09,0,0,1-3.91-3.38,5.53,5.53,0,0,0-.55-.53c-13.56-13.38-22.34-36.67-25.49-67.9-6-59.83-43.44-92.54-46.4-95-1.89-1.7-22.38-19.71-82.87-59.77q-2.29-1.52-4.38-3.14l-.28-.21c-14.92-11.64-22.1-27-21.34-45.73A69.25,69.25,0,0,1,154,124l.08-.18a73.33,73.33,0,0,1,32.42-34.52,7.36,7.36,0,0,0,1.15-.6,76.15,76.15,0,0,1,28.61-8.17c95-8,167.7,84.1,201.16,165.29A234.24,234.24,0,0,1,427.82,277h0v0C439.41,322.05,435.88,366.12,417.24,399.22Z"/><path d="M234.19,99.59c-15.68-2.61-31.21,1.63-42.6,11.58-14.54,12.71-17.44,29.72-8.19,47.9a63.88,63.88,0,0,0,10.67,14.85c9.66,10.27,31.72,31,71,54.14,54.14,32,66,87.37,71.71,114,5.43,25.38,11.45,42.79,24.61,51.17a30.25,30.25,0,0,0,16.58,4.66,43.33,43.33,0,0,0,9.66-1.16c7.53-1.73,13.78-7,18.06-15.11,12.45-23.71,8.17-71.47-10.65-118.84C372.54,206.23,309,111.93,234.19,99.59Zm158.17,275c-2.22,4.23-4.95,6.74-8.13,7.47-6.14,1.41-11,.91-14.82-1.53-9.23-5.88-14.11-23.5-18-41.66-6.15-28.71-18.94-88.46-78.75-123.78-37.64-22.22-58.54-41.8-67.66-51.5a48.78,48.78,0,0,1-8.22-11.37c-6.18-12.13-4.69-21.59,4.69-29.79a35.81,35.81,0,0,1,23.69-8.61,41,41,0,0,1,6.59.54c65.07,10.73,126.48,96.47,149.3,153.92C400.92,318.33,400.84,358.49,392.36,374.63Z"/></svg>