<svg xmlns="http://www.w3.org/2000/svg" version="1.1" viewBox="-5.0 -10.0 110.0 135.0">
 <g fill-rule="evenodd">
  <path d="m50 77.535h-43.754c-0.53906 0-0.97656-0.4375-0.97656-0.97656v-10.816c0-6.5039 5.2891-11.793 11.793-11.793h3.6172c0.53906 0 0.97656 0.4375 0.97656 0.97656 0 0.53906-0.4375 0.97656-0.97656 0.97656h-3.6172c-5.4258 0-9.8398 4.4141-9.8398 9.8398v9.8398h41.801v-9.8398c0-5.4258-4.4141-9.8398-9.8398-9.8398h-3.6172c-0.53906 0-0.97656-0.4375-0.97656-0.97656 0-0.53906 0.4375-0.97656 0.97656-0.97656h3.6172c6.5039 0 11.793 5.2891 11.793 11.793v10.816c0 0.53906-0.4375 0.97656-0.97656 0.97656z"/>
  <path d="m28.125 52.527c-5.8594 0-10.625-4.7656-10.625-10.625v-6.3906c0-0.53906 0.4375-0.97656 0.97656-0.97656 0.53906 0 0.97656 0.4375 0.97656 0.97656v6.3906c0 4.7812 3.8906 8.6719 8.6719 8.6719s8.6719-3.8867 8.6719-8.6719v-6.3906c0-0.53906 0.4375-0.97656 0.97656-0.97656 0.53906 0 0.97656 0.4375 0.97656 0.97656v6.3906c0 5.8594-4.7656 10.625-10.625 10.625z"/>
  <path d="m18.477 41.617h-1.1211c-1.9531 0-3.543-1.5898-3.543-3.543s1.5898-3.543 3.543-3.543h1.1211c0.53906 0 0.97656 0.4375 0.97656 0.97656 0 0.54297-0.4375 0.97656-0.97656 0.97656h-1.1211c-0.875 0-1.5898 0.71484-1.5898 1.5898s0.71484 1.5898 1.5898 1.5898h1.1211c0.53906 0 0.97656 0.4375 0.97656 0.97656s-0.4375 0.97656-0.97656 0.97656z"/>
  <path d="m38.891 41.617h-1.1211c-0.53906 0-0.97656-0.4375-0.97656-0.97656s0.4375-0.97656 0.97656-0.97656h1.1211c0.875 0 1.5898-0.71484 1.5898-1.5898s-0.71094-1.5898-1.5898-1.5898h-1.1211c-0.53906 0-0.97656-0.43359-0.97656-0.97656 0-0.53906 0.4375-0.97656 0.97656-0.97656h1.1211c1.9531 0 3.543 1.5898 3.543 3.543s-1.5898 3.543-3.543 3.543z"/>
  <path d="m39.613 36.59c-0.53906 0-0.97656-0.4375-0.97656-0.97656v-1.9961c0-4.8828-3.9727-8.8555-8.8555-8.8555h-3.3203c-4.8828 0-8.8555 3.9727-8.8555 8.8555v1.9961c0 0.53906-0.4375 0.97656-0.97656 0.97656-0.53906 0-0.97656-0.4375-0.97656-0.97656v-1.9961c0-5.9609 4.8477-10.809 10.809-10.809h3.3203c5.9609 0 10.809 4.8477 10.809 10.809v1.9961c0 0.53906-0.4375 0.97656-0.97656 0.97656z"/>
  <path d="m18.824 36.492c-0.12891 0-0.25781-0.003907-0.39453-0.007813-0.53906-0.023437-0.95703-0.48047-0.92969-1.0195 0.023438-0.53906 0.48047-0.96094 1.0195-0.93359 2.5195 0.10938 2.8984-1.0781 3.3359-2.457 0.16797-0.53125 0.32812-1.0391 0.63672-1.4414 0.17969-0.23437 0.45703-0.37891 0.75-0.38672 0.29297-0.007813 0.57812 0.12109 0.76953 0.34766 0.10938 0.125 2.7422 3.1328 6.4648 2.1172 4.9297-1.3438 7.9062 2.0195 8.0312 2.1641 0.35156 0.40625 0.30859 1.0234-0.10156 1.3789-0.40625 0.35156-1.0234 0.30859-1.3789-0.10156-0.089844-0.10156-2.3242-2.5664-6.0391-1.5547-3.3281 0.90625-5.9492-0.57422-7.3516-1.6875-0.44922 1.3828-1.3438 3.5898-4.8164 3.5898z"/>
  <path d="m22.102 54.844c-0.53906 0-0.97656-0.43359-0.97656-0.97266v-4.4453c0-0.53906 0.4375-0.97656 0.97656-0.97656 0.53906 0 0.97656 0.4375 0.97656 0.97656v4.4453c0 0.53906-0.4375 0.97266-0.97656 0.97266z"/>
  <path d="m34.145 54.844c-0.53906 0-0.97656-0.43359-0.97656-0.97266v-4.4453c0-0.53906 0.4375-0.97656 0.97656-0.97656 0.53906 0 0.97656 0.4375 0.97656 0.97656v4.4453c0 0.53906-0.4375 0.97266-0.97656 0.97266z"/>
  <path d="m20.535 63.012 5.0625 7.8398-4.0703-15.336-1.8516 1.3789 1.7344 1.9102c0.23828 0.26172 0.31641 0.62891 0.20312 0.96484l-1.082 3.2422zm7.5898 14.523c-0.32422 0-0.63672-0.16016-0.82031-0.44922l-8.6641-13.41c-0.16016-0.25-0.19922-0.55859-0.10547-0.83984l1.0469-3.1445-2.0742-2.2812c-0.18359-0.20312-0.27734-0.47656-0.25-0.75 0.027344-0.27344 0.16797-0.52344 0.38672-0.69141l3.8711-2.8867c0.26172-0.19141 0.59766-0.24609 0.90625-0.14062 0.30469 0.10938 0.53906 0.35938 0.62109 0.67188l6.0234 22.691c0.125 0.46484-0.10938 0.94922-0.54688 1.1445-0.12891 0.058593-0.26172 0.082031-0.39453 0.082031z"/>
  <path d="m34.719 55.516-4.0703 15.336 5.0625-7.8398-1.082-3.2422c-0.11328-0.33594-0.035156-0.70312 0.20312-0.96484l1.7344-1.9102-1.8516-1.3789zm-6.5977 22.02c-0.13281 0-0.26562-0.027344-0.39453-0.082031-0.4375-0.19531-0.67187-0.67969-0.55078-1.1445l6.0234-22.691c0.082031-0.3125 0.31641-0.5625 0.62109-0.67188 0.30469-0.10547 0.64453-0.054687 0.90625 0.14063l3.8711 2.8867c0.22266 0.16406 0.36328 0.41406 0.38672 0.69141 0.027344 0.27344-0.0625 0.54688-0.25 0.75l-2.0742 2.2812 1.0469 3.1445c0.09375 0.28125 0.054688 0.58984-0.10547 0.83984l-8.6641 13.41c-0.18359 0.28516-0.49609 0.44922-0.82031 0.44922z"/>
  <path d="m28.125 57.168c-2.2109 0-4.4219-0.84375-6.6172-2.5234-0.42969-0.32812-0.50781-0.94141-0.17969-1.3711 0.32812-0.42969 0.94141-0.51172 1.3672-0.18359 3.6523 2.8008 7.2031 2.8008 10.855 0 0.42969-0.32812 1.043-0.24609 1.3711 0.18359 0.32812 0.42578 0.24609 1.0391-0.17969 1.3711-2.1953 1.6797-4.4062 2.5234-6.6172 2.5234z"/>
  <path d="m13.887 61.234c-1.2773 0-2.3125 1.0391-2.3125 2.3164 0 1.2773 1.0391 2.3125 2.3125 2.3125 1.2773 0 2.3125-1.0391 2.3125-2.3125 0-1.2773-1.0391-2.3164-2.3125-2.3164zm0 6.582c-2.3516 0-4.2656-1.9141-4.2656-4.2656 0-2.3555 1.9141-4.2695 4.2656-4.2695 2.3516 0 4.2656 1.9141 4.2656 4.2695 0 2.3516-1.9141 4.2656-4.2656 4.2656z"/>
  <path d="m45.652 67.816h-1.7305c-0.53906 0-0.97656-0.4375-0.97656-0.97656 0-0.53906 0.4375-0.97656 0.97656-0.97656h0.75391v-3.8008c0-0.45703-0.37109-0.82812-0.82812-0.82812h-2.9727c-0.45703 0-0.82812 0.37109-0.82812 0.82812v3.8008h0.75391c0.53906 0 0.97656 0.4375 0.97656 0.97656 0 0.53906-0.4375 0.97656-0.97656 0.97656h-1.7305c-0.53906 0-0.97656-0.4375-0.97656-0.97656v-4.7773c0-1.5352 1.2461-2.7812 2.7812-2.7812h2.9727c1.5352 0 2.7812 1.2461 2.7812 2.7812v4.7773c0 0.53906-0.4375 0.97656-0.97656 0.97656z"/>
  <path d="m13.887 61.234c-0.53906 0-0.97656-0.4375-0.97656-0.97656v-3.1211c0-0.91406 0.29688-1.7812 0.86328-2.5078 0.33203-0.42578 0.94531-0.50391 1.3711-0.17188 0.42578 0.32812 0.50391 0.94531 0.17188 1.3711-0.29688 0.37891-0.44922 0.83594-0.44922 1.3086v3.1211c0 0.53906-0.4375 0.97656-0.97656 0.97656zm28.477 0c-0.53906 0-0.97656-0.4375-0.97656-0.97656v-3.1211c0-0.47656-0.15625-0.92969-0.44922-1.3086-0.33203-0.42578-0.25391-1.0391 0.17188-1.3711s1.0391-0.25391 1.3711 0.17188c0.5625 0.72656 0.86328 1.5938 0.86328 2.5078v3.1211c0 0.53906-0.4375 0.97656-0.97656 0.97656z"/>
  <path d="m42.688 75.137c-0.53906 0-0.97656-0.43359-0.97656-0.97656v-4.7617c0-0.53906 0.4375-0.97656 0.97656-0.97656s0.97656 0.4375 0.97656 0.97656v4.7617c0 0.54297-0.4375 0.97656-0.97656 0.97656z"/>
  <path d="m45.07 72.758h-4.7617c-0.53906 0-0.97656-0.4375-0.97656-0.97656s0.4375-0.97656 0.97656-0.97656h4.7617c0.53906 0 0.97656 0.4375 0.97656 0.97656s-0.4375 0.97656-0.97656 0.97656z"/>
  <path d="m12.156 72.465h7.0664v-1.3672h-7.0664zm8.043 1.9531h-9.0195c-0.53906 0-0.97656-0.4375-0.97656-0.97656v-3.3203c0-0.53906 0.4375-0.97656 0.97656-0.97656h9.0195c0.53906 0 0.97656 0.4375 0.97656 0.97656v3.3203c0 0.53906-0.4375 0.97656-0.97656 0.97656z"/>
  <path d="m93.754 77.535h-43.754c-0.53906 0-0.97656-0.4375-0.97656-0.97656v-10.816c0-6.5039 5.2891-11.793 11.793-11.793h5.0391c0.53906 0 0.97656 0.4375 0.97656 0.97656 0 0.53906-0.4375 0.97656-0.97656 0.97656h-5.0391c-5.4258 0-9.8398 4.4141-9.8398 9.8398v9.8398h41.801v-9.8398c0-5.4258-4.4141-9.8398-9.8398-9.8398h-5.0391c-0.53906 0-0.97656-0.4375-0.97656-0.97656 0-0.53906 0.4375-0.97656 0.97656-0.97656h5.0391c6.5039 0 11.793 5.2891 11.793 11.793v10.816c0 0.53906-0.4375 0.97656-0.97656 0.97656z"/>
  <path d="m71.875 52.527c-5.8594 0-10.625-4.7656-10.625-10.625v-6.3477c0-0.53906 0.4375-0.97656 0.97656-0.97656 0.53906 0 0.97656 0.4375 0.97656 0.97656v6.3477c0 4.7812 3.8906 8.6719 8.6719 8.6719s8.6719-3.8867 8.6719-8.6719v-6.7852c0-0.53906 0.4375-0.97656 0.97656-0.97656 0.53906 0 0.97656 0.4375 0.97656 0.97656v6.7852c0 5.8594-4.7656 10.625-10.625 10.625z"/>
  <path d="m60.164 36.672c-0.73437 0-1.4453-0.058594-2.1172-0.1875-0.53125-0.10156-0.875-0.61328-0.77344-1.1445 0.10156-0.52734 0.61328-0.875 1.1445-0.77344 5.8359 1.1172 15.637-4.1445 15.738-4.2031 0.36719-0.19922 0.82031-0.14062 1.1289 0.14062l0.074219 0.070313c1.2227 1.1328 4.4648 4.1445 10.133 3.9609 0.53516-0.007812 0.98828 0.40625 1.0078 0.94531 0.015625 0.53906-0.40625 0.99219-0.94531 1.0078-5.8398 0.17969-9.5117-2.6719-11.09-4.082-2.0742 1.0547-8.8359 4.2656-14.297 4.2656z"/>
  <path d="m65.855 55.906c-0.53906 0-0.97656-0.4375-0.97656-0.97656v-5.5039c0-0.53906 0.4375-0.97656 0.97656-0.97656 0.53906 0 0.97656 0.4375 0.97656 0.97656v5.5039c0 0.53906-0.4375 0.97656-0.97656 0.97656z"/>
  <path d="m77.898 55.906c-0.53906 0-0.97656-0.4375-0.97656-0.97656v-5.5039c0-0.53906 0.4375-0.97656 0.97656-0.97656 0.53906 0 0.97656 0.4375 0.97656 0.97656v5.5039c0 0.53906-0.4375 0.97656-0.97656 0.97656z"/>
  <path d="m71.875 77.535c-0.39453 0-0.76562-0.24219-0.91406-0.63281l-8.1133-21.629c-0.1875-0.50391 0.066406-1.0664 0.57031-1.2578 0.50391-0.1875 1.0664 0.066406 1.2578 0.57031l8.1133 21.629c0.1875 0.50781-0.066406 1.0664-0.57031 1.2578-0.11328 0.042969-0.23047 0.0625-0.34375 0.0625z"/>
  <path d="m71.875 77.535c-0.11328 0-0.23047-0.019531-0.34375-0.0625-0.50391-0.1875-0.76172-0.75-0.57031-1.2578l8.1133-21.629c0.1875-0.50781 0.75391-0.76172 1.2578-0.57031 0.50391 0.1875 0.76172 0.75391 0.57031 1.2578l-8.1133 21.629c-0.14844 0.39453-0.51953 0.63672-0.91406 0.63672z"/>
  <path d="m71.875 59.738c-2.3125 0-4.5977-1.418-6.7891-4.207-0.33203-0.42578-0.25781-1.0391 0.16406-1.3711 0.42578-0.33203 1.0391-0.26172 1.3711 0.16406 1.8047 2.2969 3.5703 3.4609 5.2539 3.4609s3.4492-1.1641 5.2539-3.4609c0.33203-0.42578 0.94531-0.5 1.3711-0.16406 0.42578 0.33203 0.5 0.94531 0.16406 1.3711-2.1914 2.793-4.4766 4.207-6.7891 4.207z"/>
  <path d="m57.637 61.234c-1.2773 0-2.3125 1.0391-2.3125 2.3164 0 1.2773 1.0391 2.3125 2.3125 2.3125 1.2773 0 2.3125-1.0391 2.3125-2.3125 0-1.2773-1.0391-2.3164-2.3125-2.3164zm0 6.582c-2.3516 0-4.2656-1.9141-4.2656-4.2656 0-2.3555 1.9141-4.2695 4.2656-4.2695 2.3516 0 4.2656 1.9141 4.2656 4.2695 0 2.3516-1.9141 4.2656-4.2656 4.2656z"/>
  <path d="m89.406 67.816h-1.7305c-0.53906 0-0.97656-0.4375-0.97656-0.97656 0-0.53906 0.4375-0.97656 0.97656-0.97656h0.75391v-3.8008c0-0.45703-0.37109-0.82812-0.82813-0.82812h-2.9727c-0.45703 0-0.82812 0.37109-0.82812 0.82812v3.8008h0.75391c0.53906 0 0.97656 0.4375 0.97656 0.97656 0 0.53906-0.4375 0.97656-0.97656 0.97656h-1.7305c-0.53906 0-0.97656-0.4375-0.97656-0.97656v-4.7773c0-1.5352 1.2461-2.7812 2.7812-2.7812h2.9727c1.5352 0 2.7812 1.2461 2.7812 2.7812v4.7773c0 0.53906-0.4375 0.97656-0.97656 0.97656z"/>
  <path d="m57.637 61.234c-0.53906 0-0.97656-0.4375-0.97656-0.97656v-3.1211c0-0.91406 0.29688-1.7812 0.86328-2.5078 0.33203-0.42578 0.94531-0.50391 1.3711-0.17188 0.42578 0.32812 0.50391 0.94531 0.17188 1.3711-0.29688 0.37891-0.44922 0.83594-0.44922 1.3086v3.1211c0 0.53906-0.4375 0.97656-0.97656 0.97656zm28.477 0c-0.53906 0-0.97656-0.4375-0.97656-0.97656v-3.1211c0-0.47656-0.15625-0.92969-0.44922-1.3086-0.33203-0.42578-0.25391-1.0391 0.17188-1.3711s1.0391-0.25391 1.3711 0.17188c0.5625 0.72656 0.86328 1.5938 0.86328 2.5078v3.1211c0 0.53906-0.4375 0.97656-0.97656 0.97656z"/>
  <path d="m86.441 75.137c-0.53906 0-0.97656-0.43359-0.97656-0.97656v-4.7617c0-0.53906 0.4375-0.97656 0.97656-0.97656 0.53906 0 0.97656 0.4375 0.97656 0.97656v4.7617c0 0.54297-0.4375 0.97656-0.97656 0.97656z"/>
  <path d="m88.82 72.758h-4.7617c-0.53906 0-0.97656-0.4375-0.97656-0.97656s0.4375-0.97656 0.97656-0.97656h4.7617c0.53906 0 0.97656 0.4375 0.97656 0.97656s-0.4375 0.97656-0.97656 0.97656z"/>
  <path d="m55.906 72.465h7.0664v-1.3672h-7.0664zm8.043 1.9531h-9.0195c-0.53906 0-0.97656-0.4375-0.97656-0.97656v-3.3203c0-0.53906 0.4375-0.97656 0.97656-0.97656h9.0195c0.53906 0 0.97656 0.4375 0.97656 0.97656v3.3203c0 0.53906-0.4375 0.97656-0.97656 0.97656z"/>
  <path d="m82.449 55.906c-0.36719 0-0.71875-0.20703-0.88672-0.5625-0.22656-0.48828-0.015625-1.0703 0.47266-1.2969 0.58594-0.27344 1.1289-0.66797 1.6133-1.1758 1.0508-1.1016 1.5508-2.4297 1.4844-3.9492l-0.65234-14.758c-0.29688-6.6953-6.7422-9.7422-12.605-9.7422s-12.309 3.0508-12.605 9.7422l-0.65234 14.758c-0.066407 1.5234 0.43359 2.8516 1.4844 3.9492 0.48438 0.50781 1.0273 0.90234 1.6133 1.1758 0.48828 0.22656 0.69922 0.80859 0.47266 1.2969s-0.80859 0.69922-1.2969 0.47266c-0.80469-0.375-1.543-0.91406-2.1992-1.5977-1.4336-1.5-2.1172-3.3125-2.0234-5.3867l0.65234-14.758c0.35156-7.9766 7.793-11.609 14.559-11.609s14.203 3.6328 14.559 11.609l0.65234 14.758c0.089844 2.0742-0.58984 3.8867-2.0234 5.3867-0.65234 0.68359-1.3945 1.2188-2.1992 1.5977-0.13281 0.0625-0.27344 0.089844-0.41406 0.089844z"/>
 </g>
</svg>