<svg xmlns="http://www.w3.org/2000/svg" xmlns:xlink="http://www.w3.org/1999/xlink" version="1.1" x="0px" y="0px" viewBox="0 0 512 640" enable-background="new 0 0 512 512" xml:space="preserve"><g><path d="M465.307,318.223l-62.225-62.225l62.222-62.222c40.549-40.551,40.549-106.529,0-147.079   c-40.549-40.55-106.528-40.548-147.078,0l-62.223,62.223l-62.224-62.225C174.144,27.05,148.027,16.23,120.24,16.23   c-27.784,0-53.903,10.818-73.547,30.462c-40.551,40.552-40.551,106.533,0,147.085l62.225,62.225l-62.222,62.222   c-40.549,40.551-40.549,106.529,0,147.079c20.274,20.27,46.91,30.412,73.539,30.412c26.632,0,53.264-10.138,73.539-30.412   l62.223-62.223l62.226,62.227c20.276,20.274,46.909,30.412,73.542,30.412s53.266-10.138,73.542-30.412   C505.858,424.756,505.858,358.774,465.307,318.223z M58.007,182.463c-34.313-34.312-34.313-90.144,0-124.456   C74.629,41.385,96.73,32.23,120.24,32.23c23.512,0,45.609,9.153,62.223,25.776l62.225,62.226l-11.39,11.39   c-10.305-8.67-25.765-8.167-35.476,1.53l-64.674,64.675c-9.693,9.707-10.198,25.167-1.527,35.472l-11.39,11.39L58.007,182.463z    M221.874,143.047l-78.827,78.827c-2.498-3.966-2.029-9.283,1.419-12.736l64.666-64.667   C212.59,141.019,217.908,140.548,221.874,143.047z M182.461,453.989c-34.312,34.313-90.139,34.312-124.451,0h0   c-34.311-34.311-34.311-90.139,0-124.45L329.539,58.011c17.156-17.156,39.69-25.733,62.226-25.733   c22.535,0,45.07,8.577,62.226,25.733c34.311,34.311,34.311,90.139,0,124.45L182.461,453.989z M367.533,302.862l-64.666,64.667   c-3.457,3.452-8.776,3.922-12.742,1.424l78.827-78.827C371.451,294.092,370.982,299.409,367.533,302.862z M453.993,453.993   c-17.158,17.158-39.689,25.736-62.228,25.734c-22.533-0.002-45.074-8.58-62.229-25.734l-62.225-62.226l11.39-11.39   c4.865,4.094,10.876,6.148,16.894,6.147c6.727,0,13.457-2.559,18.582-7.677l64.674-64.675c9.693-9.707,10.198-25.167,1.527-35.472   l11.39-11.39l62.226,62.226C488.306,363.85,488.306,419.681,453.993,453.993z"/><path d="M314.176,133.157c-4.962-4.963-11.561-7.696-18.578-7.696c-7.018,0-13.616,2.733-18.578,7.695L133.156,277.021   c-10.243,10.244-10.243,26.912,0,37.155l64.667,64.667c0,0.001,0,0,0,0.001c4.962,4.962,11.561,7.695,18.578,7.695   c7.018,0,13.616-2.733,18.578-7.695l143.865-143.864c10.243-10.244,10.243-26.912,0-37.155L314.176,133.157z M367.53,223.666   L223.666,367.53c-1.94,1.94-4.52,3.009-7.264,3.009c-2.744,0-5.323-1.068-7.264-3.009l0-0.001l-64.668-64.668   c-4.005-4.005-4.005-10.522,0-14.527L288.334,144.47c1.94-1.94,4.52-3.009,7.264-3.009c2.744,0,5.323,1.068,7.264,3.01   l64.668,64.668C371.535,213.144,371.535,219.661,367.53,223.666z"/><path d="M329.539,114.579c1.562,1.562,3.609,2.343,5.657,2.343s4.095-0.781,5.657-2.343c3.125-3.125,3.125-8.189,0-11.314   l-11.313-11.313c-3.124-3.123-8.189-3.123-11.313,0c-3.125,3.125-3.125,8.189,0,11.314L329.539,114.579z"/><path d="M408.735,171.147c-3.124-3.124-8.189-3.124-11.313-0.001c-3.124,3.124-3.125,8.189,0,11.313l11.314,11.314   c1.562,1.562,3.609,2.344,5.657,2.344c2.047,0,4.095-0.781,5.657-2.343c3.124-3.124,3.125-8.189,0-11.313L408.735,171.147z"/><path d="M369.137,154.177c1.562,1.562,3.609,2.343,5.657,2.343s4.095-0.781,5.657-2.343c3.125-3.125,3.125-8.189,0-11.314   l-11.313-11.313c-3.124-3.123-8.189-3.123-11.313,0c-3.125,3.125-3.125,8.189,0,11.314L369.137,154.177z"/><path d="M369.137,108.922c1.562,1.562,3.609,2.343,5.657,2.343s4.095-0.781,5.657-2.343c3.125-3.125,3.125-8.189,0-11.314   l-11.313-11.313c-3.124-3.123-8.189-3.123-11.313,0c-3.125,3.125-3.125,8.189,0,11.314L369.137,108.922z"/><path d="M414.392,86.294c-3.124-3.123-8.189-3.124-11.313,0.001c-3.125,3.124-3.124,8.189,0,11.313l11.314,11.313   c1.562,1.562,3.609,2.343,5.657,2.343s4.095-0.781,5.657-2.344c3.125-3.124,3.124-8.189,0-11.313L414.392,86.294z"/><path d="M414.392,131.549c-3.124-3.123-8.189-3.124-11.313,0.001c-3.125,3.124-3.124,8.189,0,11.313l11.314,11.313   c1.562,1.562,3.609,2.343,5.657,2.343s4.095-0.781,5.657-2.344c3.125-3.124,3.124-8.189,0-11.313L414.392,131.549z"/><path d="M103.265,318.226c-3.124-3.124-8.189-3.124-11.313-0.001c-3.124,3.124-3.125,8.189,0,11.313l11.314,11.314   c1.562,1.562,3.609,2.344,5.657,2.344c2.047,0,4.095-0.781,5.657-2.343c3.124-3.124,3.125-8.189,0-11.313L103.265,318.226z"/><path d="M182.461,397.421c-3.124-3.123-8.189-3.123-11.313,0c-3.125,3.125-3.125,8.189,0,11.314l11.313,11.313   c1.562,1.562,3.609,2.343,5.657,2.343s4.095-0.781,5.657-2.343c3.125-3.125,3.125-8.189,0-11.314L182.461,397.421z"/><path d="M142.863,357.823c-3.124-3.123-8.189-3.123-11.313,0c-3.125,3.125-3.125,8.189,0,11.314l11.313,11.313   c1.562,1.562,3.609,2.343,5.657,2.343s4.095-0.781,5.657-2.343c3.125-3.125,3.125-8.189,0-11.314L142.863,357.823z"/><path d="M97.608,357.823c-3.124-3.123-8.189-3.124-11.313,0.001c-3.125,3.124-3.124,8.189,0,11.313l11.314,11.313   c1.562,1.562,3.609,2.343,5.657,2.343s4.095-0.781,5.657-2.344c3.125-3.124,3.124-8.189,0-11.313L97.608,357.823z"/><path d="M97.608,403.078c-3.124-3.123-8.189-3.124-11.313,0.001c-3.125,3.124-3.124,8.189,0,11.313l11.314,11.313   c1.562,1.562,3.609,2.343,5.657,2.343s4.095-0.781,5.657-2.344c3.125-3.124,3.124-8.189,0-11.313L97.608,403.078z"/><path d="M142.863,403.078c-3.124-3.123-8.189-3.123-11.313,0c-3.125,3.125-3.125,8.189,0,11.314l11.313,11.313   c1.562,1.562,3.609,2.343,5.657,2.343s4.095-0.781,5.657-2.343c3.125-3.125,3.125-8.189,0-11.314L142.863,403.078z"/><path d="M103.265,171.147l-11.314,11.314c-3.125,3.124-3.124,8.189,0,11.313c1.562,1.562,3.609,2.343,5.657,2.343   s4.095-0.781,5.657-2.344l11.314-11.314c3.125-3.124,3.124-8.189,0-11.313C111.455,168.023,106.389,168.022,103.265,171.147z"/><path d="M176.804,116.922c2.047,0,4.095-0.781,5.657-2.343l11.313-11.313c3.125-3.125,3.125-8.189,0-11.314   c-3.124-3.123-8.189-3.123-11.313,0l-11.313,11.313c-3.125,3.125-3.125,8.189,0,11.314   C172.709,116.141,174.757,116.922,176.804,116.922z"/><path d="M137.206,156.52c2.047,0,4.095-0.781,5.657-2.343l11.314-11.313c3.124-3.124,3.125-8.189,0-11.313   c-3.123-3.124-8.188-3.124-11.313-0.001l-11.314,11.313c-3.124,3.124-3.125,8.189,0,11.313   C133.111,155.738,135.158,156.52,137.206,156.52z"/><path d="M97.608,154.177l11.314-11.313c3.124-3.124,3.125-8.189,0-11.313c-3.123-3.124-8.188-3.124-11.313-0.001l-11.314,11.313   c-3.124,3.124-3.125,8.189,0,11.313c1.562,1.562,3.609,2.344,5.657,2.344C93.999,156.52,96.046,155.738,97.608,154.177z"/><path d="M91.951,111.265c2.047,0,4.095-0.781,5.657-2.343l11.314-11.313c3.124-3.124,3.125-8.189,0-11.313   c-3.123-3.124-8.188-3.124-11.313-0.001L86.294,97.607c-3.124,3.124-3.125,8.189,0,11.313   C87.856,110.483,89.903,111.265,91.951,111.265z"/><path d="M137.206,111.265c2.047,0,4.095-0.781,5.657-2.343l11.314-11.313c3.124-3.124,3.125-8.189,0-11.313   c-3.123-3.124-8.188-3.124-11.313-0.001l-11.314,11.313c-3.124,3.124-3.125,8.189,0,11.313   C133.111,110.483,135.158,111.265,137.206,111.265z"/><path d="M329.539,397.421l-11.313,11.313c-3.125,3.125-3.125,8.189,0,11.314c1.562,1.562,3.609,2.343,5.657,2.343   s4.095-0.781,5.657-2.343l11.313-11.313c3.125-3.125,3.125-8.189,0-11.314C337.729,394.298,332.663,394.298,329.539,397.421z"/><path d="M408.735,340.853l11.314-11.314c3.125-3.124,3.124-8.189,0-11.313c-3.124-3.123-8.189-3.124-11.313,0.001l-11.314,11.314   c-3.125,3.124-3.124,8.189,0,11.313c1.562,1.562,3.609,2.343,5.657,2.343S407.173,342.415,408.735,340.853z"/><path d="M369.137,357.823l-11.314,11.313c-3.124,3.124-3.125,8.189,0,11.313c1.562,1.562,3.609,2.344,5.657,2.344   c2.047,0,4.095-0.781,5.657-2.343l11.314-11.313c3.124-3.124,3.125-8.189,0-11.313C377.327,354.7,372.262,354.7,369.137,357.823z"/><path d="M369.137,403.078l-11.314,11.313c-3.124,3.124-3.125,8.189,0,11.313c1.562,1.562,3.609,2.344,5.657,2.344   c2.047,0,4.095-0.781,5.657-2.343l11.314-11.313c3.124-3.124,3.125-8.189,0-11.313   C377.327,399.955,372.262,399.956,369.137,403.078z"/><path d="M414.392,403.078l-11.314,11.313c-3.124,3.124-3.125,8.189,0,11.313c1.562,1.562,3.609,2.344,5.657,2.344   c2.047,0,4.095-0.781,5.657-2.343l11.314-11.313c3.124-3.124,3.125-8.189,0-11.313   C422.582,399.955,417.517,399.956,414.392,403.078z"/><path d="M414.392,357.823l-11.314,11.313c-3.124,3.124-3.125,8.189,0,11.313c1.562,1.562,3.609,2.344,5.657,2.344   c2.047,0,4.095-0.781,5.657-2.343l11.314-11.313c3.124-3.124,3.125-8.189,0-11.313C422.582,354.7,417.517,354.7,414.392,357.823z"/><path d="M284.304,190.461c4.418,0,8-3.582,8-8s-3.582-8-8-8h-0.01c-4.418,0-7.995,3.582-7.995,8S279.886,190.461,284.304,190.461z"/><path d="M306.932,197.088h-0.01c-4.418,0-7.995,3.582-7.995,8s3.586,8,8.005,8s8-3.582,8-8S311.35,197.088,306.932,197.088z"/><path d="M329.559,219.716h-0.01c-4.418,0-7.995,3.582-7.995,8s3.586,8,8.005,8s8-3.582,8-8S333.978,219.716,329.559,219.716z"/><path d="M301.275,225.373h-0.01c-4.418,0-7.995,3.582-7.995,8s3.586,8,8.005,8s8-3.582,8-8S305.693,225.373,301.275,225.373z"/><path d="M278.647,202.745h-0.01c-4.418,0-7.995,3.582-7.995,8s3.586,8,8.005,8s8-3.582,8-8S283.066,202.745,278.647,202.745z"/><path d="M267.333,259.313h-0.01c-4.418,0-7.995,3.582-7.995,8s3.586,8,8.005,8s8-3.582,8-8S271.752,259.313,267.333,259.313z"/><path d="M244.707,236.687h-0.01c-4.418,0-7.995,3.582-7.995,8s3.586,8,8.005,8s8-3.582,8-8S249.125,236.687,244.707,236.687z"/><path d="M250.363,224.402c4.418,0,8-3.582,8-8s-3.582-8-8-8h-0.01c-4.418,0-7.995,3.582-7.995,8S245.945,224.402,250.363,224.402z"/><path d="M272.991,231.029h-0.01c-4.418,0-7.995,3.582-7.995,8s3.586,8,8.005,8s8-3.582,8-8S277.409,231.029,272.991,231.029z"/><path d="M295.618,253.657h-0.01c-4.418,0-7.995,3.582-7.995,8s3.586,8,8.005,8s8-3.582,8-8S300.037,253.657,295.618,253.657z"/><path d="M182.481,276.284h-0.01c-4.418,0-7.995,3.582-7.995,8s3.586,8,8.005,8s8-3.582,8-8S186.899,276.284,182.481,276.284z"/><path d="M205.108,298.912h-0.01c-4.418,0-7.995,3.582-7.995,8s3.586,8,8.005,8s8-3.582,8-8S209.527,298.912,205.108,298.912z"/><path d="M227.736,321.539h-0.01c-4.418,0-7.995,3.582-7.995,8s3.586,8,8.005,8s8-3.582,8-8S232.154,321.539,227.736,321.539z"/><path d="M233.393,293.255h-0.01c-4.418,0-7.995,3.582-7.995,8s3.586,8,8.005,8s8-3.582,8-8S237.811,293.255,233.393,293.255z"/><path d="M210.765,270.627h-0.01c-4.418,0-7.995,3.582-7.995,8s3.586,8,8.005,8s8-3.582,8-8S215.184,270.627,210.765,270.627z"/><path d="M216.422,258.343c4.418,0,8-3.582,8-8s-3.582-8-8-8h-0.01c-4.418,0-7.995,3.582-7.995,8S212.003,258.343,216.422,258.343z"/><path d="M239.049,264.971h-0.01c-4.418,0-7.995,3.582-7.995,8s3.586,8,8.005,8s8-3.582,8-8S243.468,264.971,239.049,264.971z"/><path d="M261.677,287.598h-0.01c-4.418,0-7.995,3.582-7.995,8s3.586,8,8.005,8s8-3.582,8-8S266.095,287.598,261.677,287.598z"/></g></svg>