<svg xmlns="http://www.w3.org/2000/svg" version="1.1" viewBox="-5.0 -10.0 110.0 135.0">
 <g fill-rule="evenodd">
  <path d="m6.25 72.801c-0.53906 0-0.97656-0.4375-0.97656-0.97656v-2.9531c0-8.8125 7.168-15.98 15.98-15.98h4.0547c0.53906 0 0.97656 0.4375 0.97656 0.97656 0 0.53906-0.4375 0.97656-0.97656 0.97656h-4.0508c-7.7344 0-14.027 6.293-14.027 14.027v2.9531c0 0.53906-0.4375 0.97656-0.97656 0.97656zm54.82 0c-0.53906 0-0.97656-0.4375-0.97656-0.97656v-2.9531c0-7.7344-6.293-14.027-14.027-14.027h-4.0508c-0.53906 0-0.97656-0.4375-0.97656-0.97656 0-0.53906 0.4375-0.97656 0.97656-0.97656h4.0508c8.8125 0 15.98 7.168 15.98 15.98v2.9531c0 0.53906-0.43359 0.97656-0.97656 0.97656z"/>
  <path d="m60.23 83.062h-53.145c-0.53906 0-0.97656-0.4375-0.97656-0.97656v-10.262c0-0.53906 0.4375-0.97656 0.97656-0.97656 0.53906 0 0.97656 0.4375 0.97656 0.97656v9.2852h51.191v-9.2852c0-0.53906 0.4375-0.97656 0.97656-0.97656 0.53906 0 0.97656 0.4375 0.97656 0.97656v10.262c0 0.53906-0.4375 0.97656-0.97656 0.97656z"/>
  <path d="m33.66 51.562c-6.8867 0-12.488-5.6016-12.488-12.488v-6.3672c0-0.53906 0.4375-0.97656 0.97656-0.97656 0.53906 0 0.97656 0.4375 0.97656 0.97656v6.3633c0 5.8086 4.7266 10.535 10.535 10.535 5.8125 0 10.535-4.7266 10.535-10.535v-6.3672c0-0.53906 0.4375-0.97656 0.97656-0.97656 0.54297 0 0.97656 0.4375 0.97656 0.97656v6.3633c0 6.8867-5.6016 12.488-12.488 12.488z"/>
  <path d="m22.176 40.859h-2.0781c-2.5156 0-4.5664-2.0469-4.5664-4.5625s2.0469-4.5664 4.5664-4.5664h2.0508c0.53906 0 0.97656 0.4375 0.97656 0.97656 0 0.53906-0.4375 0.97656-0.97656 0.97656h-2.0508c-1.4414 0-2.6133 1.1719-2.6133 2.6133s1.1719 2.6133 2.6133 2.6133h2.0781c0.53906 0 0.97656 0.4375 0.97656 0.97656 0 0.53906-0.4375 0.97656-0.97656 0.97656z"/>
  <path d="m47.375 33.688c-0.53906 0-0.97656-0.4375-0.97656-0.97656v-2.2617c0-5.9297-4.8281-10.758-10.758-10.758h-3.9609c-5.9297 0-10.758 4.8242-10.758 10.758v2.2617c0 0.53906-0.4375 0.97656-0.97656 0.97656-0.53906 0-0.97656-0.4375-0.97656-0.97656v-2.2617c0-7.0078 5.6992-12.711 12.711-12.711h3.9609c7.0078 0 12.711 5.7031 12.711 12.711v2.2617c0 0.53906-0.4375 0.97656-0.97656 0.97656z"/>
  <path d="m22.574 33.691c-0.15234 0-0.30859-0.003906-0.47266-0.011718-0.53516-0.023438-0.95312-0.48047-0.92969-1.0195 0.023437-0.53906 0.47656-0.95703 1.0195-0.92969 3.1523 0.14062 3.6445-1.4141 4.168-3.0625 0.19922-0.62109 0.38281-1.207 0.73047-1.668 0.17969-0.23438 0.45703-0.37891 0.75391-0.38672 0.29688-0.003906 0.57812 0.11719 0.76953 0.34375 0.13281 0.15625 3.3477 3.8281 7.9062 2.5859 5.7695-1.5742 9.2461 2.3516 9.3945 2.5195 0.35156 0.40625 0.30859 1.0234-0.10156 1.3789-0.40625 0.35156-1.0234 0.30859-1.3789-0.10156-0.10938-0.125-2.8438-3.1562-7.4023-1.9141-0.84375 0.23047-1.6484 0.32812-2.4102 0.32812-2.9062 0-5.1602-1.4414-6.4102-2.4844-0.52734 1.6758-1.4141 4.418-5.6406 4.4141z"/>
  <path d="m25.305 54.84c-0.53906 0-0.97656-0.4375-0.97656-0.97656v-6.8906c0-0.53906 0.4375-0.97656 0.97656-0.97656 0.53906 0 0.97656 0.4375 0.97656 0.97656v6.8906c0 0.53906-0.4375 0.97656-0.97656 0.97656z"/>
  <path d="m42.016 54.84c-0.53906 0-0.97656-0.4375-0.97656-0.97656v-6.8906c0-0.53906 0.4375-0.97656 0.97656-0.97656s0.97656 0.4375 0.97656 0.97656v6.8906c0 0.53906-0.4375 0.97656-0.97656 0.97656z"/>
  <path d="m61.07 72.801h-13.277c-0.53906 0-0.97656-0.4375-0.97656-0.97656 0-0.53906 0.4375-0.97656 0.97656-0.97656h13.277c0.54297 0 0.97656 0.4375 0.97656 0.97656 0 0.53906-0.43359 0.97656-0.97656 0.97656z"/>
  <path d="m19.523 72.801h-13.277c-0.53906 0-0.97656-0.4375-0.97656-0.97656 0-0.53906 0.4375-0.97656 0.97656-0.97656h13.277c0.53906 0 0.97656 0.4375 0.97656 0.97656 0 0.53906-0.4375 0.97656-0.97656 0.97656z"/>
  <path d="m19.523 83.062c-0.53906 0-0.97656-0.4375-0.97656-0.97656v-17.07c0-0.53906 0.4375-0.97656 0.97656-0.97656 0.53906 0 0.97656 0.4375 0.97656 0.97656v17.07c0 0.53906-0.4375 0.97656-0.97656 0.97656z"/>
  <path d="m47.793 83.062c-0.53906 0-0.97656-0.4375-0.97656-0.97656v-17.07c0-0.53906 0.4375-0.97656 0.97656-0.97656 0.54297 0 0.97656 0.4375 0.97656 0.97656v17.07c0 0.53906-0.4375 0.97656-0.97656 0.97656z"/>
  <path d="m47.227 40.859h-2.082c-0.53906 0-0.97656-0.4375-0.97656-0.97656 0-0.53906 0.4375-0.97656 0.97656-0.97656h2.082c1.4375 0 2.6094-1.1719 2.6094-2.6094 0-1.4414-1.1719-2.6133-2.6094-2.6133h-2.0508c-0.53906 0-0.97656-0.4375-0.97656-0.97656 0-0.53906 0.4375-0.97656 0.97656-0.97656h2.0547c2.5156 0 4.5625 2.0469 4.5625 4.5664 0 2.5156-2.0469 4.5664-4.5625 4.5625z"/>
  <path d="m33.66 63.82c-0.10156 0-0.20703-0.015624-0.30469-0.050781-4.8242-1.5898-7.8516-4.8477-9-9.6797-0.125-0.52344 0.19922-1.0508 0.72266-1.1758s1.0508 0.19922 1.1758 0.72656c0.96875 4.0859 3.3906 6.7617 7.4023 8.1719 4.0156-1.4102 6.4375-4.0859 7.4062-8.1719 0.125-0.52344 0.64844-0.84766 1.1758-0.72656 0.52344 0.125 0.85156 0.65234 0.72656 1.1758-1.1445 4.8359-4.1758 8.0938-9 9.6797-0.097656 0.03125-0.20312 0.050781-0.30469 0.050781z"/>
  <path d="m66.441 33.395c-0.75391 0-1.3711 0.61328-1.3711 1.3711v17.344c0 0.75781 0.61719 1.3711 1.3711 1.3711h9.2148c0.75391 0 1.3711-0.61328 1.3711-1.3711v-17.344c0-0.75781-0.61719-1.3711-1.3711-1.3711zm9.2148 22.039h-9.2148c-1.832 0-3.3242-1.4922-3.3242-3.3242v-17.344c0-1.832 1.4922-3.3242 3.3242-3.3242h9.2148c1.832 0 3.3242 1.4922 3.3242 3.3242v17.344c0 1.832-1.4922 3.3242-3.3242 3.3242z"/>
  <path d="m78.004 39.297h-13.91c-0.53906 0-0.97656-0.4375-0.97656-0.97656 0-0.53906 0.4375-0.97656 0.97656-0.97656h13.91c0.53906 0 0.97656 0.4375 0.97656 0.97656 0 0.53906-0.4375 0.97656-0.97656 0.97656z"/>
  <path d="m72.32 60.523h-2.543c-1.4648 0-2.6562-1.1914-2.6562-2.6562v-3.4102c0-0.53906 0.4375-0.97656 0.97656-0.97656 0.53906 0 0.97656 0.4375 0.97656 0.97656v3.4102c0 0.38672 0.31641 0.70312 0.70312 0.70312h2.543c0.38672 0 0.70313-0.31641 0.70313-0.70312v-3.4102c0-0.53906 0.4375-0.97656 0.97656-0.97656s0.97656 0.4375 0.97656 0.97656v3.4102c0 1.4648-1.1914 2.6562-2.6562 2.6562z"/>
  <path d="m62.164 77.184h-1.9297c-0.53906 0-0.97656-0.4375-0.97656-0.97656 0-0.53906 0.4375-0.97656 0.97656-0.97656h1.9297c4.3633 0 7.9102-3.5469 7.9102-7.9102v-7.7734c0-0.53906 0.4375-0.97656 0.97656-0.97656 0.53906 0 0.97656 0.4375 0.97656 0.97656v7.7734c0 5.4375-4.4258 9.8633-9.8633 9.8633z"/>
  <path d="m66.992 43.055h-2.8984c-0.53906 0-0.97656-0.4375-0.97656-0.97656s0.4375-0.97656 0.97656-0.97656h2.8984c0.53906 0 0.97656 0.4375 0.97656 0.97656s-0.4375 0.97656-0.97656 0.97656z"/>
  <path d="m66.992 47.367h-2.8984c-0.53906 0-0.97656-0.4375-0.97656-0.97656s0.4375-0.97656 0.97656-0.97656h2.8984c0.53906 0 0.97656 0.4375 0.97656 0.97656s-0.4375 0.97656-0.97656 0.97656z"/>
  <path d="m66.992 51.676h-2.8984c-0.53906 0-0.97656-0.4375-0.97656-0.97656 0-0.53906 0.4375-0.97656 0.97656-0.97656h2.8984c0.53906 0 0.97656 0.4375 0.97656 0.97656 0 0.53906-0.4375 0.97656-0.97656 0.97656z"/>
  <path d="m82.375 73.754c-0.53906 0-0.97656-0.4375-0.97656-0.97656v-49.312h-7.0859v4.7812c0 0.53906-0.4375 0.97656-0.97656 0.97656-0.53906 0-0.97656-0.4375-0.97656-0.97656v-5.7578c0-0.53906 0.4375-0.97656 0.97656-0.97656h9.0391c0.53906 0 0.97656 0.4375 0.97656 0.97656v50.289c0 0.53906-0.4375 0.97656-0.97656 0.97656zm4.5781 0c-0.54297 0-0.97656-0.4375-0.97656-0.97656v-52.574c0-0.72266-0.58984-1.3125-1.3125-1.3125h-13.613c-0.72266 0-1.3125 0.58984-1.3125 1.3125v8.0469c0 0.53906-0.43359 0.97656-0.97656 0.97656-0.53906 0-0.97656-0.4375-0.97656-0.97656v-8.0469c0-1.8008 1.4648-3.2656 3.2656-3.2656h13.613c1.8008 0 3.2656 1.4648 3.2656 3.2656v52.574c0 0.53906-0.4375 0.97656-0.97656 0.97656z"/>
  <path d="m76.551 76.82h16.227v-3.0664h-16.227zm16.418 1.9531h-16.609c-0.96875 0-1.7617-0.78906-1.7617-1.7617v-3.4492c0-0.97266 0.78906-1.7617 1.7617-1.7617h16.609c0.97266 0 1.7617 0.78906 1.7617 1.7617v3.4492c0 0.97266-0.78906 1.7617-1.7617 1.7617z"/>
  <path d="m79.711 83.062c-1.8672 0-3.3867-1.5195-3.3867-3.3867v-1.8789c0-0.53906 0.4375-0.97656 0.97656-0.97656 0.53906 0 0.97656 0.4375 0.97656 0.97656v1.8789c0 0.78906 0.64453 1.4336 1.4336 1.4336 0.79297 0 1.4336-0.64453 1.4336-1.4336v-1.8789c0-0.53906 0.4375-0.97656 0.97656-0.97656 0.53906 0 0.97656 0.4375 0.97656 0.97656v1.8789c0 1.8672-1.5195 3.3867-3.3867 3.3867z"/>
  <path d="m89.613 83.062c-1.8672 0-3.3867-1.5195-3.3867-3.3867v-1.8789c0-0.53906 0.4375-0.97656 0.97656-0.97656 0.54297 0 0.97656 0.4375 0.97656 0.97656v1.8789c0 0.78906 0.64453 1.4336 1.4336 1.4336 0.79297 0 1.4336-0.64453 1.4336-1.4336v-1.8789c0-0.53906 0.4375-0.97656 0.97656-0.97656 0.54297 0 0.97656 0.4375 0.97656 0.97656v1.8789c0 1.8672-1.5195 3.3867-3.3867 3.3867z"/>
  <path d="m68.742 33.395c-0.26953 0-0.53125-0.10938-0.72656-0.32422-0.67578-0.75-1.0469-1.7188-1.0469-2.7266 0-1.0234 0.37891-2 1.0703-2.7539 0.18359-0.20312 0.44922-0.31641 0.71875-0.31641h4.5742c0.27344 0 0.53516 0.11328 0.71875 0.31641 0.69141 0.75391 1.0703 1.7305 1.0703 2.7539 0 1.0078-0.37109 1.9805-1.0469 2.7266-0.35938 0.40234-0.98047 0.43359-1.3789 0.070313-0.40234-0.35938-0.43359-0.97656-0.070312-1.3789 0.35156-0.39062 0.54688-0.89453 0.54688-1.4219 0-0.39844-0.11328-0.78516-0.31641-1.1172h-3.6172c-0.20703 0.33203-0.31641 0.71875-0.31641 1.1172 0 0.52734 0.19141 1.0312 0.54688 1.4219 0.36328 0.40234 0.32812 1.0195-0.070312 1.3789-0.1875 0.16797-0.42188 0.25-0.65234 0.25z"/>
 </g>
</svg>