<svg xmlns="http://www.w3.org/2000/svg" version="1.1" viewBox="-5.0 -10.0 110.0 135.0">
 <path d="m14.543 73.68h70.914v3.4844c0 0.86328 0.69922 1.5625 1.5625 1.5625h6.7305c0.86328 0 1.5625-0.69922 1.5625-1.5625v-30.289c0-0.86328-0.69922-1.5625-1.5625-1.5625h-6.7305c-0.86328 0-1.5625 0.69922-1.5625 1.5625v0.66406c-0.73828-0.35547-1.5547-0.54687-2.3906-0.54687h-32.477c-1.4609 0-2.8672 0.58203-3.8984 1.6172-0.92188 0.92188-1.4844 2.1406-1.5977 3.4297h-3.625v-33.895h3.8047c0.39453 0 0.77344 0.15625 1.0508 0.43359 0.27734 0.27734 0.4375 0.65625 0.4375 1.0508v3.6836c0 0.85938 0.69922 1.5625 1.5625 1.5625 0.85938 0 1.5625-0.70312 1.5625-1.5625v-3.6836c0-1.2227-0.48828-2.3945-1.3516-3.2578-0.86328-0.86719-2.0391-1.3516-3.2578-1.3516h-10.73c-1.2227 0-2.3945 0.48438-3.2578 1.3516-0.86719 0.86719-1.3516 2.0391-1.3516 3.2578v2.1211h-1.8047c-0.86328 0-1.5625 0.69531-1.5625 1.5625v9.1367c0 1.3906 1.1289 2.5195 2.5234 2.5195h1.4453c0.25 0.57422 0.55078 1.4219 0.64453 2.3438 0.097656 0.9375-0.023438 1.9805-0.81641 2.8203-0.10156 0.10938-0.30469 0.1875-0.51563 0.30078-0.40625 0.21094-0.86719 0.43359-1.2891 0.67578-0.86719 0.49219-1.5547 1.1094-1.8438 1.7344-0.26562 0.56641-0.30859 1.1875-0.14844 1.8516 0.13281 0.55469 0.44531 1.1641 0.77344 1.7891 0.13281 0.25 0.26562 0.50391 0.36719 0.75781 0.058593 0.15234 0.14453 0.29297 0.11328 0.44141-0.03125 0.14844-0.21094 0.20703-0.44141 0.33203-0.75781 0.41406-1.0312 1.3672-0.61719 2.1211 0.41406 0.75781 1.3672 1.0312 2.1211 0.61719 1.043-0.57031 1.5703-1.25 1.8359-1.9102 0.39844-0.99219 0.21875-2.0625-0.26562-3.1094-0.19922-0.43359-0.44531-0.86719-0.64844-1.2812-0.046875-0.089844-0.097656-0.21484-0.13672-0.32031 0.20312-0.13672 0.55078-0.36719 0.80078-0.49609 0.88281-0.46094 1.7617-0.92188 2.1641-1.3477 1.4961-1.582 1.8359-3.5195 1.6562-5.2852-0.070313-0.72656-0.23828-1.4141-0.42969-2.0273h0.042969c1.3945 0 2.5234-1.1289 2.5234-2.5195v-9.1367c0-0.86719-0.69922-1.5625-1.5625-1.5625h-1.8047v-2.1211c0-0.39453 0.15625-0.77344 0.43359-1.0508 0.27734-0.27734 0.65625-0.43359 1.0508-0.43359h3.8047v33.895h-15.387c-0.13281-4.5859-3.8242-8.2773-8.4102-8.4102v-11.902c0-0.86328-0.69922-1.5625-1.5625-1.5625h-6.7305c-0.86328 0-1.5625 0.69922-1.5625 1.5625v45.43c0 0.86328 0.69922 1.5625 1.5625 1.5625h6.7305c0.86328 0 1.5625-0.69922 1.5625-1.5625v-3.4844zm-3.125-40.383v42.305h-3.6055v-42.305zm80.77 15.145v27.164h-3.6055v-27.164zm-47.117 16.828v5.2891h-30.527v-5.2891zm40.383-12.754v18.039h-37.262v-18.039c0-0.63281 0.25391-1.2422 0.69922-1.6914 0.44922-0.44922 1.0547-0.70312 1.6914-0.70312h32.477c0.63281 0 1.2422 0.25391 1.6914 0.70312 0.44922 0.44531 0.69922 1.0547 0.69922 1.6914zm-70.914 9.6289h30.527v-6.9727h-30.531v6.9727zm0-10.098v-5.2812c2.8555 0.12891 5.1523 2.4219 5.2812 5.2812zm18.75-20.195h-3.6055v-6.9688h3.6055z" fill-rule="evenodd"/>
</svg>