<svg xmlns="http://www.w3.org/2000/svg" xmlns:xlink="http://www.w3.org/1999/xlink" version="1.1" x="0px" y="0px" viewBox="0 0 450 562.5" style="enable-background:new 0 0 450 450;" xml:space="preserve"><g><g><path d="M423.1,68.7H27.5c-12.8,0-23.2-10.4-23.2-23.2s10.4-23.2,23.2-23.2h395.6c12.8,0,23.2,10.4,23.2,23.2    S435.9,68.7,423.1,68.7z M27.5,32.3c-7.3,0-13.2,5.9-13.2,13.2s5.9,13.2,13.2,13.2h395.6c7.3,0,13.2-5.9,13.2-13.2    s-5.9-13.2-13.2-13.2H27.5z"/></g><g><path d="M379.5,341.7H71c-20.2,0-36.7-16.4-36.7-36.6V63.7c0-2.8,2.2-5,5-5s5,2.2,5,5V305c0,14.7,11.9,26.6,26.7,26.6h308.6    c14.7,0,26.6-12,26.6-26.6V63.7c0-2.8,2.2-5,5-5s5,2.2,5,5V305C416.2,325.3,399.8,341.7,379.5,341.7z"/></g><g><g><path d="M110.9,149.7H79.8c-8.9,0-16.2-7.3-16.2-16.2v-31.1c0-8.9,7.3-16.2,16.2-16.2h31.1c8.9,0,16.2,7.3,16.2,16.2v31.1     C127.1,142.4,119.8,149.7,110.9,149.7z M79.8,96.2c-3.4,0-6.2,2.8-6.2,6.2v31.1c0,3.4,2.8,6.2,6.2,6.2h31.1     c3.4,0,6.2-2.8,6.2-6.2v-31.1c0-3.4-2.8-6.2-6.2-6.2H79.8z"/></g><g><path d="M110.9,232H79.8c-8.9,0-16.2-7.3-16.2-16.2v-31.1c0-8.9,7.3-16.2,16.2-16.2h31.1c8.9,0,16.2,7.3,16.2,16.2v31.1     C127.1,224.7,119.8,232,110.9,232z M79.8,178.5c-3.4,0-6.2,2.8-6.2,6.2v31.1c0,3.4,2.8,6.2,6.2,6.2h31.1c3.4,0,6.2-2.8,6.2-6.2     v-31.1c0-3.4-2.8-6.2-6.2-6.2H79.8L79.8,178.5z"/></g><g><path d="M110.9,314.2H79.8c-8.9,0-16.2-7.3-16.2-16.2v-31c0-8.9,7.3-16.2,16.2-16.2h31.1c8.9,0,16.2,7.3,16.2,16.2v31     C127.1,306.9,119.8,314.2,110.9,314.2z M79.8,260.7c-3.4,0-6.2,2.8-6.2,6.2V298c0,3.4,2.8,6.2,6.2,6.2h31.1     c3.4,0,6.2-2.8,6.2-6.2v-31c0-3.4-2.8-6.2-6.2-6.2L79.8,260.7L79.8,260.7z"/></g><g><g><path d="M381.9,104.7H153.3c-2.8,0-5-2.2-5-5s2.2-5,5-5H382c2.8,0,5,2.2,5,5C386.9,102.5,384.7,104.7,381.9,104.7z"/></g><g><path d="M356.6,138.8h-178c-2.8,0-5-2.2-5-5s2.2-5,5-5h178c2.8,0,5,2.2,5,5S359.4,138.8,356.6,138.8z"/></g></g><g><g><path d="M381.9,188.2H153.3c-2.8,0-5-2.2-5-5s2.2-5,5-5H382c2.8,0,5,2.2,5,5S384.7,188.2,381.9,188.2z"/></g><g><path d="M356.6,222.2h-178c-2.8,0-5-2.2-5-5s2.2-5,5-5h178c2.8,0,5,2.2,5,5S359.4,222.2,356.6,222.2z"/></g></g><g><g><path d="M381.9,270.5H153.3c-2.8,0-5-2.2-5-5s2.2-5,5-5H382c2.8,0,5,2.2,5,5S384.7,270.5,381.9,270.5z"/></g><g><path d="M356.6,304.5h-178c-2.8,0-5-2.2-5-5s2.2-5,5-5h178c2.8,0,5,2.2,5,5S359.4,304.5,356.6,304.5z"/></g></g></g><g><path d="M225.3,376.1c-2.8,0-5-2.2-5-5v-34.4c0-2.8,2.2-5,5-5c2.8,0,5,2.2,5,5v34.4C230.3,373.9,228,376.1,225.3,376.1z"/></g><g><path d="M225.3,429.1c-17.4,0-31.5-14.1-31.5-31.5s14.1-31.5,31.5-31.5s31.5,14.1,31.5,31.5S242.6,429.1,225.3,429.1z     M225.3,376.1c-11.9,0-21.5,9.6-21.5,21.5s9.6,21.5,21.5,21.5s21.5-9.6,21.5-21.5S237.1,376.1,225.3,376.1z"/></g></g></svg>