<svg xmlns="http://www.w3.org/2000/svg" version="1.1" viewBox="-5.0 -10.0 110.0 135.0">
 <path d="m57.742 57.836c-2.6641 0.49219-4.6836 2.8281-4.6836 5.6367v23.266c0 2.2422-0.89062 4.3945-2.4766 5.9805-1.5859 1.5859-3.7383 2.4766-5.9805 2.4766h-14.297c-3.3242 0-6.1992-1.918-7.582-4.7031-1.0117-0.10547-1.9648-0.55469-2.6914-1.2812-0.83594-0.83594-1.3047-1.9727-1.3047-3.1523v-9.8164c0-1.1797 0.46875-2.3164 1.3047-3.1484 0.51172-0.51562 1.1367-0.88672 1.8164-1.1016v-5.0898c-0.67969-0.21484-1.3047-0.58984-1.8164-1.1016-0.83594-0.83594-1.3047-1.9688-1.3047-3.1523v-0.4375c-0.66797-0.21484-1.2812-0.58594-1.7852-1.0898-0.83594-0.83594-1.3047-1.9727-1.3047-3.1523v-0.22656h-0.28516c-5.8906 0-10.668-4.7773-10.668-10.672v-27.035c0-5.7266 4.5117-10.402 10.18-10.66l1.7227-0.003906c0.70312-2.6953 3.1523-4.6875 6.0703-4.6875h0.72266c2.9219 0 5.3789 2 6.0742 4.7031 1.0586-0.015625 1.7188-0.019531 1.7188-0.019531h0.29297c5.8906 0 10.672 4.7773 10.672 10.668v27.035c0 5.8945-4.7812 10.672-10.672 10.672h-0.28516v0.22656c0 1.1797-0.46875 2.3164-1.3047 3.1523-0.50391 0.50391-1.1172 0.875-1.7852 1.0898v0.4375c0 1.1836-0.46875 2.3164-1.3047 3.1523-0.51172 0.51172-1.1367 0.88672-1.8164 1.1016v5.0898c0.67969 0.21484 1.3047 0.58594 1.8164 1.1016 0.83594 0.83203 1.3047 1.9688 1.3047 3.1484v9.8164c0 1.1797-0.46875 2.3164-1.3047 3.1523-0.24609 0.24609-0.51953 0.46094-0.8125 0.64062 0.96875 1.3477 2.5469 2.2227 4.332 2.2227h14.297c1.4141 0 2.7734-0.5625 3.7734-1.5625s1.5625-2.3594 1.5625-3.7734v-23.266c0-4.5352 3.4102-8.2734 7.8047-8.7891-0.007813-1.6719-0.34375-3.3281-0.98438-4.875-0.66016-1.5898-1.5-3.6211-2.2031-5.3164-0.98828-2.3789-1.4961-4.9336-1.4961-7.5078v-19.82c0-2.582 2.0938-4.6758 4.6797-4.6758h0.003907c0.58594 0 1.1445 0.10547 1.6602 0.30078 0.44531-2.1211 2.3242-3.7148 4.5781-3.7148h0.003906c0.54688 0 1.0703 0.09375 1.5586 0.26562 0.011719-2.5742 2.1016-4.6562 4.6797-4.6562h0.003906c2.5859 0 4.6797 2.0938 4.6797 4.6797v0.26562c0.48828-0.17188 1.0117-0.26172 1.5586-0.26172h0.003906c2.5859 0 4.6797 2.0938 4.6797 4.6758v14.426c0.18359-0.16016 0.37109-0.32031 0.5625-0.47656 1.8906-1.5469 4.2617-2.7891 6.8438-2.8047 1.7969-0.007812 3.4727 0.61719 4.3359 1.3867 0.45703 0.41016 0.73828 0.97266 0.75 1.7148 0.007813 0.54297-0.16797 1.2695-0.57422 2.1289-1.8398 3.8828-9.2148 12.059-12.664 18.559-0.53516 1.1094-0.8125 2.3281-0.8125 3.5625v41.098c0 0.85938-0.69922 1.5586-1.5625 1.5586h-18.727c-0.85938 0-1.5586-0.69922-1.5586-1.5586zm3.1211-0.09375v34.332h15.605v-39.535c0-1.7227 0.39062-3.4219 1.1484-4.9688 0.003906-0.015624 0.011718-0.03125 0.023437-0.046874 3.0117-5.6914 9.0625-12.695 11.77-16.969 0.42188-0.67188 0.79297-1.4844 0.98047-1.918-0.47656-0.21875-1.1406-0.33203-1.8164-0.32812-1.8594 0.011718-3.5273 0.98828-4.8906 2.0977-2.2305 1.8242-3.6523 4.0898-3.6523 4.0898-0.24609 0.40234-0.66406 0.66797-1.1328 0.72266-3.1211 0.38281-5.0781 1.3906-6.2461 2.7031-2.6133 2.9336-1.2148 7.1367-1.2148 7.1367 0.26172 0.82031-0.19141 1.6992-1.0117 1.9648-0.82031 0.26172-1.6992-0.1875-1.9609-1.0117 0 0-1.8711-5.9766 1.8555-10.164 1.4531-1.6367 3.7734-3.0469 7.4883-3.625 0.066406-0.09375 0.13672-0.19531 0.21875-0.30469v-17.875c0-0.85938-0.69531-1.5547-1.5586-1.5547h-0.003906c-0.85938 0-1.5586 0.69531-1.5586 1.5547v15.121c0 0.85938-0.69922 1.5586-1.5586 1.5586-0.86328 0-1.5625-0.69922-1.5625-1.5586v-19.801c0-0.85938-0.69531-1.5586-1.5586-1.5586h-0.003906c-0.85938 0-1.5586 0.69922-1.5586 1.5586v19.508c0 0.86328-0.69922 1.5625-1.5586 1.5625-0.86328 0-1.5625-0.69922-1.5625-1.5625v-15.117c0-0.85938-0.69531-1.5586-1.5586-1.5586h-0.003906c-0.85938 0-1.5586 0.69922-1.5586 1.5586v15.117c0 0.86328-0.69922 1.5625-1.5586 1.5625-0.86328 0-1.5625-0.69922-1.5625-1.5625v-11.707c0-0.85937-0.69531-1.5547-1.5586-1.5547h-0.003907c-0.85938 0-1.5586 0.69531-1.5586 1.5547v19.82c0 2.1641 0.42969 4.3125 1.2578 6.3125 0.69922 1.6953 1.5469 3.7266 2.2031 5.3164 0.78906 1.9062 1.207 3.9453 1.2227 6.0078h3.6328c4.8867 0 8.8516 3.9609 8.8516 8.8516v9.0938c0 0.86328-0.69922 1.5625-1.5625 1.5625-0.85938 0-1.5586-0.69922-1.5586-1.5625v-9.0938c0-3.168-2.5664-5.7305-5.7305-5.7305zm-35.895 24.969v3.3477c0 0.35547-0.14062 0.69141-0.39062 0.94531-0.25 0.25-0.58984 0.39062-0.94531 0.39062h-0.44922c-0.35547 0-0.69531-0.14062-0.94531-0.39062-0.25-0.25391-0.39062-0.58984-0.39062-0.94531v-3.3477zm0-3.1211h-3.1211v-3.3477c0-0.35547 0.14062-0.69141 0.39062-0.94531 0.25-0.25 0.58984-0.38672 0.94531-0.38672h0.44922c0.35547 0 0.69531 0.13672 0.94531 0.38672 0.25 0.25391 0.39062 0.58984 0.39062 0.94531zm0-17.164v0.22266c0 0.35547-0.14062 0.69531-0.39062 0.94531s-0.58984 0.39062-0.94531 0.39062h-0.44922c-0.35547 0-0.69531-0.14062-0.94531-0.39062s-0.39062-0.58984-0.39062-0.94531v-0.22266zm3.0898-4.6836v0.22656c0 0.35547-0.13672 0.69141-0.39062 0.94531-0.25 0.25-0.58594 0.39063-0.94141 0.39063h-6.6367c-0.35156 0-0.69141-0.14063-0.94141-0.39063-0.25-0.25391-0.39063-0.58984-0.39063-0.94531v-0.22656zm3.4062-45.254h-16.113c-4.168 0-7.5469 3.3789-7.5469 7.5469v27.035c0 4.1719 3.3789 7.5508 7.5469 7.5508h16.113c4.168 0 7.5508-3.3789 7.5508-7.5508v-27.035c0-4.168-3.3828-7.5469-7.5508-7.5469zm4.4297 12.926c0-1.7695-0.70703-3.4727-1.9609-4.7266s-2.9531-1.957-4.7266-1.957h-11.598c-1.7695 0-3.4727 0.70312-4.7266 1.957-1.2539 1.2539-1.957 2.957-1.957 4.7266v16.277c0 1.7734 0.70312 3.4727 1.957 4.7305 1.2539 1.2539 2.957 1.957 4.7266 1.957h11.598c1.7734 0 3.4727-0.70312 4.7266-1.957 1.2539-1.2578 1.9609-2.957 1.9609-4.7305zm-3.1211 0v16.277c0 0.94531-0.37891 1.8516-1.0469 2.5234-0.66797 0.66797-1.5742 1.043-2.5195 1.043h-11.598c-0.94531 0-1.8516-0.375-2.5195-1.043-0.66797-0.67188-1.043-1.5781-1.043-2.5234v-16.277c0-0.94531 0.375-1.8516 1.043-2.5195 0.66797-0.66797 1.5742-1.043 2.5195-1.043h11.598c0.94531 0 1.8516 0.375 2.5195 1.043 0.66797 0.66797 1.0469 1.5742 1.0469 2.5195zm-15.605 16.723h9.3633c0.85938 0 1.5586-0.69922 1.5586-1.5586 0-0.86328-0.69922-1.5625-1.5586-1.5625h-9.3633c-0.86328 0-1.5625 0.69922-1.5625 1.5625 0 0.85938 0.69922 1.5586 1.5625 1.5586zm0-6.2422h12.484c0.85938 0 1.5586-0.69922 1.5586-1.5586 0-0.86328-0.69922-1.5625-1.5586-1.5625h-12.484c-0.86328 0-1.5625 0.69922-1.5625 1.5625 0 0.85937 0.69922 1.5586 1.5625 1.5586zm0-6.2422h5.4609c0.85938 0 1.5586-0.69922 1.5586-1.5586 0-0.86328-0.69922-1.5625-1.5586-1.5625h-5.4609c-0.86328 0-1.5625 0.69922-1.5625 1.5625 0 0.85938 0.69922 1.5586 1.5625 1.5586zm10.141 0h2.3438c0.85938 0 1.5586-0.69922 1.5586-1.5586 0-0.86328-0.69922-1.5625-1.5586-1.5625h-2.3438c-0.85938 0-1.5586 0.69922-1.5586 1.5625 0 0.85938 0.69922 1.5586 1.5586 1.5586zm-1.1914-20.258c-0.54297-0.94922-1.5664-1.5898-2.7383-1.5898h-0.72266c-1.1719 0-2.1953 0.64062-2.7344 1.5898z" fill-rule="evenodd"/>
</svg>